<svg xmlns="http://www.w3.org/2000/svg" viewBox="0 0 21.8 39.76"><defs><style>.cls-1{opacity:0.2;}.cls-2{fill:#fff;}.cls-3{fill:#75c01f;}.cls-4{fill:#bebfc3;}.cls-5{fill:#fcbb47;}</style></defs><title>Asset 1</title><g id="Layer_2" data-name="Layer 2"><g id="Isolation_Mode" data-name="Isolation Mode"><rect class="cls-1" x="0.5" y="23.04" width="21.05" height="16.71"/><rect class="cls-2" x="0.65" y="23.19" width="19.75" height="15.41"/><path class="cls-3" d="M21.05,39.26H0V22.54H21.05ZM1.3,38H19.75V23.84H1.3Z"/><rect class="cls-4" x="3.53" y="25.94" width="14" height="1"/><rect class="cls-4" x="3.53" y="28.24" width="14" height="1"/><rect class="cls-4" x="3.53" y="30.54" width="14" height="1"/><rect class="cls-4" x="3.53" y="32.84" width="14" height="1"/><circle class="cls-5" cx="15.69" cy="35.72" r="1.02"/><rect class="cls-1" x="0.75" y="0.5" width="21.05" height="18.81"/><rect class="cls-2" x="0.9" y="0.65" width="19.75" height="17.51"/><path class="cls-5" d="M21.3,18.81H.25V0H21.3ZM1.55,17.51H20V1.3H1.55Z"/><rect class="cls-4" x="3.22" y="3.16" width="15.1" height="1"/><rect class="cls-4" x="3.22" y="5.46" width="15.1" height="1"/><rect class="cls-4" x="3.22" y="7.76" width="15.1" height="1"/><rect class="cls-4" x="3.22" y="10.06" width="15.1" height="1"/><rect class="cls-4" x="3.22" y="12.36" width="15.1" height="1"/><rect class="cls-4" x="3.22" y="14.66" width="15.1" height="1"/></g></g></svg>