<svg xmlns="http://www.w3.org/2000/svg" viewBox="0 0 56.11 56.65"><defs><style>.cls-1{isolation:isolate;}.cls-2{opacity:0.1;mix-blend-mode:multiply;}.cls-3{fill:#fff;}.cls-4{fill:#0e4768;}.cls-5{fill:#2f343d;}</style></defs><title>Asset 4</title><g class="cls-1"><g id="Layer_2" data-name="Layer 2"><g id="OBJECTS"><circle class="cls-2" cx="25.61" cy="31.03" r="25.61"/><circle class="cls-3" cx="28.49" cy="27.61" r="25.61"/><path class="cls-4" d="M32.57.3A27.37,27.37,0,0,0,28.5,0a27.6,27.6,0,1,0,4.07.3ZM28.5,51.23A23.68,23.68,0,0,1,4.88,27.61,23.61,23.61,0,1,1,28.5,51.23Z"/><path class="cls-5" d="M28.49,9.4c.23,3,.32,6.07.42,9.11s.1,6.07.07,9.11v.25l-.2.14q-2.85,2-5.77,4c-1.94,1.32-3.89,2.6-5.89,3.83,1.79-1.51,3.63-3,5.48-4.4s3.72-2.85,5.61-4.23l-.2.4c0-3,0-6.07.07-9.11S28.26,12.43,28.49,9.4Z"/><path class="cls-2" d="M56.11,27.61A27.58,27.58,0,0,1,10.68,48.68c.9-.13,1.78-.28,2.62-.44s1.86-.38,2.74-.59C46,40.44,39.42,15.66,34.81,4.86c-.38-.87-.74-1.65-1.06-2.32-.49-1-.9-1.77-1.18-2.24A27.65,27.65,0,0,1,56.11,27.61Z"/></g></g></g></svg>