<svg xmlns="http://www.w3.org/2000/svg" viewBox="0 0 465.9 286.51"><defs><style>.cls-1{isolation:isolate;}.cls-2{fill:#b7bcc4;opacity:0.5;}.cls-12,.cls-18,.cls-2,.cls-22,.cls-4,.cls-7{mix-blend-mode:multiply;}.cls-3,.cls-4{fill:#e5af9c;}.cls-14,.cls-17,.cls-18,.cls-4{opacity:0.3;}.cls-5{fill:#fff;}.cls-6{fill:#07213d;}.cls-7{opacity:0.2;}.cls-8{fill:#2956c5;}.cls-9{fill:#0e4768;}.cls-10,.cls-18{fill:#884635;}.cls-11,.cls-12{fill:#ffd8ca;}.cls-13,.cls-15{fill:none;stroke-miterlimit:10;stroke-width:0.49px;}.cls-13{stroke:#022235;}.cls-14{fill:#ffd3bf;mix-blend-mode:screen;}.cls-15{stroke:#c12323;}.cls-16{fill:#c4190c;}.cls-17{fill:#f39f52;}.cls-19{fill:#97cb2e;}.cls-20{fill:#b26b28;}.cls-21{fill:#81b31e;}.cls-22{opacity:0.1;}.cls-23{fill:#c98031;}.cls-24{fill:#6f8c8a;}.cls-25{fill:#aac8c8;}.cls-26{fill:#fffbe5;}.cls-27{fill:#5ebff4;}.cls-28{fill:#2f343d;}</style></defs><title>Asset 4</title><g class="cls-1"><g id="Layer_2" data-name="Layer 2"><g id="OBJECTS"><ellipse class="cls-2" cx="231.55" cy="277.69" rx="231.55" ry="8.82"/><path class="cls-3" d="M264.54,76.65a12,12,0,0,0,.93,1.72c1.92,3,5.85,7,10.87,7,10.07,0,10.56-8.08,10.58-8.42l0-.2a7.3,7.3,0,0,1-4-6.77,9.12,9.12,0,0,1,.17-1.83s-3.57,0-7-.19h-.06c-1.72.07-3.46.12-4.78.15l-2.21,0s1.28,5.55-3.34,8.32Z"/><path class="cls-4" d="M264.54,76.65a12,12,0,0,0,.93,1.72c5.68-5.28,13.94-7.62,17.47-8.42a9.12,9.12,0,0,1,.17-1.83s-3.57,0-7-.19h-.06c-1.72.07-3.46.12-4.78.15l-2.21,0s1.28,5.55-3.34,8.32Z"/><path class="cls-5" d="M285.88,80.39s-5.11,5-18.49.34c1.93,8.74,7.71,11.35,7.71,11.35L285,84.82Z"/><path class="cls-6" d="M246.53,123.9l-.67,28.84,56.88-.53-2.69-26s-2.46-9.21-2-12.28c.11-.68.35-1.06.8-1,2.48.41,10.48-2.44,12.13-3.68-1-1.86-3.1-15.71-6.61-24.39s-11.57-7.23-11.57-7.23L274.63,93.32s-12.94-15-15.08-15.3c-15.49-2.07-21.08,33.89-21.08,33.89l8.48,1.24Z"/><path class="cls-7" d="M238.76,105.44l13.55,34.1a2.49,2.49,0,0,0,3,1.47l25.29-7.13a2.47,2.47,0,0,0,1.62-3.31l-.92-2.26L268.49,96.89a2.46,2.46,0,0,0-2.87-1.47c-4.49,1.09-11.21,2.89-16.93,4.44-3.31.9-6.28,1.72-8.29,2.28A2.48,2.48,0,0,0,238.76,105.44Z"/><path class="cls-8" d="M236.6,103.72l13.55,34.1a2.49,2.49,0,0,0,3,1.47l25.29-7.13a2.47,2.47,0,0,0,1.62-3.31l-.92-2.26L266.33,95.17a2.46,2.46,0,0,0-2.87-1.47c-4.49,1.09-11.21,2.89-16.93,4.44-3.31.9-6.28,1.72-8.29,2.28A2.48,2.48,0,0,0,236.6,103.72Z"/><polygon class="cls-7" points="287.58 77.92 276.24 92.66 265.12 77.83 257.41 78.01 276.01 101.51 295.58 77.53 287.58 77.92"/><polygon class="cls-9" points="287.58 75.97 276.24 90.72 265.12 75.89 257.41 78.01 276.01 99.56 295.4 77.58 287.58 75.97"/><path class="cls-3" d="M259.64,43a2.47,2.47,0,0,0-2-2.45,2.83,2.83,0,0,0-2.39.85,3.74,3.74,0,0,0-.86,2,14.49,14.49,0,0,0,.9,7.4,4.66,4.66,0,0,0,1.74,2.5,3.1,3.1,0,0,0,3.4,0Z"/><path class="cls-3" d="M297.58,43a2.47,2.47,0,0,1,2-2.45,2.83,2.83,0,0,1,2.39.85,3.74,3.74,0,0,1,.86,2,14.49,14.49,0,0,1-.9,7.4,4.66,4.66,0,0,1-1.74,2.5,3.1,3.1,0,0,1-3.4,0Z"/><path class="cls-10" d="M256.52,40.59a11.46,11.46,0,0,0,.76,2h0c.4.79.78,1.14,1.06.91l0,0a0,0,0,0,1,0,0,1.39,1.39,0,0,1,1.29-.09c1.38.43,3.28,2,4.79,3.5s2.45,2.56,2.45,2.56l3.2-2.94,4.78-4.4,6.42-5.91,4.21,1,9.61,2.25s-.63,17,1.89,11c0,0,0,0,0,0a27.89,27.89,0,0,0,1-3.07c.22-.81.47-1.75.73-2.84s.58-2.5.9-4q.21-1,.42-2C304.33,17.7,289.41,12,283.57,10.81a8.25,8.25,0,0,0-7-10.72,10.58,10.58,0,0,0-5.13.64,9.8,9.8,0,0,0-3.11,1.88,6.38,6.38,0,0,0-2.18,5.94,7.46,7.46,0,0,0,1.26,3.37c-.3.1-.59.2-.87.31C253.45,17.23,254.45,33.78,256.52,40.59Z"/><path class="cls-7" d="M296.47,100.81l1,12.1.58,1c.11-.68.35-1.06.8-1,2.48.41,10.48-2.44,12.13-3.68C298.48,112.86,296.68,102.51,296.47,100.81Z"/><path class="cls-11" d="M258.35,52.5A21.91,21.91,0,0,0,258.8,57c2.22,10.61,12.3,12.67,18.4,12.67a32.73,32.73,0,0,0,7.14-.72c8.84-2,12-7.58,13.1-12a19.55,19.55,0,0,0,.59-4.71V40.53c0-.4.06-.79.07-1.19s0-.59,0-.89a17.5,17.5,0,0,0-14.4-14.85c1.35,2.71,1.23,3.94-.61,5.29s-2.09,4.06-.5,5.16c-2.21-1.47-2.46-4.18-1.1-6.39a2.71,2.71,0,0,0-1.11-4.06c0,3.08-2.7,6.77-12.67,9.59a21,21,0,0,0-3.74,1.6c-2.49,1.31-5.18,3.19-5.58,4.94C258.37,42.36,258.35,46.4,258.35,52.5Z"/><path class="cls-12" d="M284.39,25.16a17.42,17.42,0,0,1,13.69,14.48c0-.1,0-.2,0-.3,0-.3,0-.59,0-.89a17.5,17.5,0,0,0-14.4-14.85A13.27,13.27,0,0,1,284.39,25.16Z"/><path class="cls-12" d="M283.11,30.3c1.27-.93,1.72-1.81,1.43-3.16a3.47,3.47,0,0,1-1.43,1.75,3.65,3.65,0,0,0-1.47,3.69A3.78,3.78,0,0,1,283.11,30.3Z"/><path class="cls-11" d="M280.73,31.14a4.25,4.25,0,0,0,1.88,4.32,2.61,2.61,0,0,1-1-2.37A4,4,0,0,1,280.73,31.14Z"/><path class="cls-11" d="M298,41.94c0-.4.06-.79.07-1.19s0-.59,0-.89a2,2,0,0,0,0-.22c0,.3,0,.59,0,.89Z"/><path class="cls-12" d="M284.54,27.14a3.4,3.4,0,0,0-.15-2l-.67-.15A8.9,8.9,0,0,1,284.54,27.14Z"/><path class="cls-11" d="M282.61,34a2.41,2.41,0,0,1-1-1.47,3,3,0,0,0-.07.51A4.18,4.18,0,0,0,282.61,34Z"/><path class="cls-11" d="M281.51,29.07a2.74,2.74,0,0,0,.41-2.32,3.78,3.78,0,0,1-.41.91,5.17,5.17,0,0,0-.78,3.48A5.58,5.58,0,0,1,281.51,29.07Z"/><line class="cls-13" x1="279.91" y1="45.06" x2="275.6" y2="45.06"/><circle class="cls-14" cx="266.17" cy="45.82" r="9.47"/><circle class="cls-15" cx="266.17" cy="45.82" r="9.47"/><circle class="cls-14" cx="289.37" cy="45.82" r="9.47"/><circle class="cls-13" cx="289.37" cy="45.82" r="9.47"/><circle class="cls-13" cx="266.17" cy="45.82" r="9.47"/><ellipse class="cls-10" cx="287.82" cy="46.55" rx="2.83" ry="3.48"/><circle class="cls-5" cx="286.39" cy="44.29" r="1.29"/><ellipse class="cls-10" cx="267.28" cy="46.55" rx="2.83" ry="3.48"/><path class="cls-16" d="M271.39,60.37a6.21,6.21,0,0,0,.34,1.91c.55,1.53,1.91,2.95,5,2.95s5.24-.49,6.34-2.43a6.34,6.34,0,0,0,.71-2.18A1.81,1.81,0,0,0,282,58.52h-8.84A1.8,1.8,0,0,0,271.39,60.37Z"/><circle class="cls-5" cx="266.5" cy="43.83" r="1.29"/><path class="cls-17" d="M271.73,62.28c.55,1.53,1.91,2.95,5,2.95s5.24-.49,6.34-2.43C281.05,61.1,277.26,59.38,271.73,62.28Z"/><path class="cls-18" d="M266.11,8.55a7.46,7.46,0,0,0,1.26,3.37c-.3.1.28-.11,0,0,3-1.56,8.51-2.1,14.62-1.33-13.59-1.7-13.76-6.86-13.7-8A6.38,6.38,0,0,0,266.11,8.55Z"/><path class="cls-12" d="M258.41,39.73a2.71,2.71,0,0,1,.23-.61l.11-.19a4.44,4.44,0,0,1,.28-.42l.17-.21c.12-.14.24-.28.38-.42l.18-.19c.2-.19.41-.39.64-.58l0,0c.23-.19.47-.37.72-.55l.27-.19L262,36l.31-.2.57-.34.29-.17.83-.46h0a21.85,21.85,0,0,1,3.74-1.6c10-2.82,12.67-6.51,12.67-9.59a2.74,2.74,0,0,1,1.52,3.15A3.21,3.21,0,0,0,280.4,25c0,3.08-2.7,6.77-12.67,9.59-.71.2-6.09,3-7.37,3.66-.23,10.42-4.21,36,24,30.74a32.73,32.73,0,0,1-7.14.72c-6.1,0-16.18-2.06-18.4-12.67a21.91,21.91,0,0,1-.45-4.55C258.35,46.4,258.37,42.36,258.41,39.73Z"/><path class="cls-11" d="M299.39,152.34s.41,0,2.05-.06c1.1,0,2.75,0,5.2.06,2.93-17.55.53-41.31.53-41.31l-.11,0c-.87.2-7,1.62-9.57,1.85C297.23,113,299.39,152.34,299.39,152.34Z"/><path class="cls-12" d="M299.39,152.34s.41,0,2.05-.06c-2.6-37,4.64-40.87,5.62-41.22-.87.2-7,1.62-9.57,1.85C297.23,113,299.39,152.34,299.39,152.34Z"/><path class="cls-7" d="M236.6,103.72l13.55,34.1a2.49,2.49,0,0,0,3,1.47l25.29-7.13a2.47,2.47,0,0,0,1.62-3.31l-.92-2.26c-26.63,10.58-31.8-21.59-32.59-28.45-3.31.9-6.28,1.72-8.29,2.28A2.48,2.48,0,0,0,236.6,103.72Z"/><path class="cls-11" d="M238.41,127.59a2.68,2.68,0,0,0,3.2,1.83c5.36-1.28,13.4-5.32,17.95-10.27a2.37,2.37,0,0,1,1.22-.69c4.14-.89,6.81-3.81,6.15-8.35a5.7,5.7,0,0,0-1.28-3c-2.39-2.67-5.94-.79-8.07,1.1-.13-3-2.46-4.38-3.69-1.5a15.71,15.71,0,0,0-1.06,5,2.19,2.19,0,0,1-1.62,2c-2.27.58-6.42,1.86-9,3.87l-2.4-5.34a22.43,22.43,0,0,0-1.44,4.16A21.31,21.31,0,0,0,238.41,127.59Z"/><path class="cls-12" d="M238.41,127.59a2.68,2.68,0,0,0,3.2,1.83c5.36-1.28,13.4-5.32,17.95-10.27a2.37,2.37,0,0,1,1.22-.69c4.14-.89,6.81-3.81,6.15-8.35a5.7,5.7,0,0,0-1.28-3s1,11.11-7.53,9c-1.09,3.25-16,13.68-18.21,10.23-1.76-2.79-2-7.07-1.55-10A21.31,21.31,0,0,0,238.41,127.59Z"/><rect class="cls-5" x="284.84" y="104.01" width="10.67" height="2.37" transform="translate(580.34 210.39) rotate(-180)"/><path class="cls-19" d="M436.7,116.71s3.7-4.64,6.92-5.43c-1.65,2.75-1.89,7.16-1.89,7.16l-4.09,6.37S434.11,118.13,436.7,116.71Z"/><path class="cls-19" d="M435.65,116.79s-.63-9.13-4.25-12c-.16,3.78-2.52,12-2.52,12s1.26,4.56,1.73,4.88a26.22,26.22,0,0,0,3.78.94Z"/><path class="cls-19" d="M429.55,114.63s-4.86-7.75-9.39-8.54c1.64,3.4,3.42,11.73,3.42,11.73s3.26,3.43,3.83,3.48a26.23,26.23,0,0,0,3.77-.95Z"/><path class="cls-20" d="M414.46,129.37v7.47a11.41,11.41,0,0,0,11.41,11.41h7.61a11.29,11.29,0,0,0,5.45-1.38,11.4,11.4,0,0,0,6-10v-7.47Z"/><path class="cls-21" d="M441.32,125.81s-.84-8.6,9-12.69c-5.66.63-12,1.68-14.48,12.48C441,126.86,441.32,125.81,441.32,125.81Z"/><path class="cls-21" d="M437.23,127.28s-2.94-10.49,6.08-22.76c-7.13,5.77-12.17,11.85-13.22,21.82A37,37,0,0,1,437.23,127.28Z"/><path class="cls-22" d="M414.46,129.67v7.18a11.41,11.41,0,0,0,11.41,11.41h7.61a11.29,11.29,0,0,0,5.45-1.38c-13.31-1.52-11.24-16.11-11.24-16.11S422.7,130,414.46,129.67Z"/><path class="cls-21" d="M432.72,126.44s-1.26-17.41-15.31-17.1c4.51,1.68,9.55,8.18,8.6,17.83C427.05,129.17,432.72,126.44,432.72,126.44Z"/><path class="cls-21" d="M428.73,126.75s-3.46-17.62-15.63-12.38c3.25.52,9.86-.31,10,13.53C427.79,126,428.73,126.75,428.73,126.75Z"/><path class="cls-23" d="M411.32,128.06a2.91,2.91,0,0,0,2.89,2.89h32.41a2.89,2.89,0,0,0,0-5.77H414.2A2.89,2.89,0,0,0,411.32,128.06Z"/><path class="cls-22" d="M411.32,128.06a2.91,2.91,0,0,0,2.89,2.89h32.41a2.82,2.82,0,0,0,1.8-.64c-14.69-.38-20.08-.3-20-5.13H414.2A2.89,2.89,0,0,0,411.32,128.06Z"/><path class="cls-24" d="M361.2,136.22a14.09,14.09,0,0,1-2.87,8.69h27a14.09,14.09,0,0,1-2.87-8.69,16.08,16.08,0,0,1,2.87-8.73h-27A16.08,16.08,0,0,1,361.2,136.22Z"/><path class="cls-25" d="M319.49,76.27v49.68a10.28,10.28,0,0,0,10.29,10.27h84.06a10.3,10.3,0,0,0,9.8-7.14,10.47,10.47,0,0,0,.48-3.13V76.27A10.28,10.28,0,0,0,413.84,66H329.78A10.28,10.28,0,0,0,319.49,76.27Z"/><path class="cls-9" d="M373.23,93.58a.31.31,0,0,0,.31-.31v-9a.31.31,0,1,0-.61,0v9A.31.31,0,0,0,373.23,93.58Z"/><path class="cls-9" d="M378.65,97.37a.25.25,0,0,0,.18-.07L384.1,92a.25.25,0,1,0-.36-.36l-5.27,5.27a.25.25,0,0,0,.18.43Z"/><path class="cls-9" d="M383.92,113.47a.25.25,0,0,0,.18-.43l-5.27-5.27a.25.25,0,1,0-.36.36l5.27,5.27A.25.25,0,0,0,383.92,113.47Z"/><path class="cls-9" d="M373.23,121.11a.31.31,0,0,0,.31-.31v-9a.31.31,0,1,0-.61,0v9A.31.31,0,0,0,373.23,121.11Z"/><path class="cls-9" d="M362.55,113.47a.25.25,0,0,0,.18-.07l5.27-5.27a.25.25,0,1,0-.36-.36L362.37,113a.25.25,0,0,0,.18.43Z"/><path class="cls-9" d="M367.82,97.37a.25.25,0,0,0,.18-.43l-5.27-5.27a.25.25,0,0,0-.36.36l5.27,5.27A.25.25,0,0,0,367.82,97.37Z"/><path class="cls-9" d="M382.49,102.53h9a.31.31,0,0,0,0-.61h-9a.31.31,0,0,0,0,.61Z"/><path class="cls-9" d="M354.76,102.53h9a.31.31,0,0,0,0-.61h-9a.31.31,0,0,0,0,.61Z"/><circle class="cls-26" cx="373.23" cy="102.23" r="7.73"/><circle class="cls-9" cx="373.23" cy="102.23" r="5.19"/><path class="cls-22" d="M319.49,76.27v49.68a10.28,10.28,0,0,0,10.29,10.27H361.2a14.09,14.09,0,0,1-2.87,8.69h27a14.09,14.09,0,0,1-2.87-8.69h31.42a10.3,10.3,0,0,0,9.8-7.14c-23.65.38-39.53-4.46-50.11-11.68-.21-.14-.41-.27-.6-.42a45.47,45.47,0,0,1-7.36-6.43,4.5,4.5,0,0,1-.33-.37,43.29,43.29,0,0,1-5.54-7.65c-.12-.21-.23-.41-.35-.62-7.68-14-6.5-29.38-5.5-35.92H329.78A10.28,10.28,0,0,0,319.49,76.27Z"/><polygon class="cls-5" points="200.21 153.09 200.83 159.1 204.77 197.11 210.02 247.9 212.94 276.06 443.05 276.06 445.97 247.89 447.24 235.63 451.22 197.11 455.16 159.1 455.78 153.09 200.21 153.09"/><path class="cls-27" d="M202.06,204.58,206.37,242a7.41,7.41,0,0,0,3.65,5.9,4.76,4.76,0,0,0,2.19.54H443.77a4.69,4.69,0,0,0,2.2-.55,7.46,7.46,0,0,0,3.65-5.89l.76-6.59,3.54-30.83a8.41,8.41,0,0,0-2.7-7.47,5,5,0,0,0-3.14-1.16H207.91a4.91,4.91,0,0,0-3.14,1.16A8.39,8.39,0,0,0,202.06,204.58Z"/><rect class="cls-9" x="190.08" y="145.15" width="275.82" height="13.95" rx="5.47" ry="5.47"/><path class="cls-5" d="M308.83,213.31h7.68a2.35,2.35,0,0,0,2.35-2.36v-7.68a2.36,2.36,0,0,1,2.36-2.35h13.55a2.35,2.35,0,0,1,2.35,2.35V211a2.35,2.35,0,0,0,2.36,2.36h7.68a2.35,2.35,0,0,1,2.35,2.35v13.55a2.35,2.35,0,0,1-2.35,2.35h-7.68a2.35,2.35,0,0,0-2.36,2.35v7.68a2.35,2.35,0,0,1-2.35,2.35H321.22a2.35,2.35,0,0,1-2.36-2.35v-7.68a2.35,2.35,0,0,0-2.35-2.35h-7.68a2.35,2.35,0,0,1-2.35-2.35V215.67A2.35,2.35,0,0,1,308.83,213.31Z"/><path class="cls-22" d="M190.08,150.62v3a5.47,5.47,0,0,0,5.47,5.47h5.28l3.94,38a8.39,8.39,0,0,0-2.71,7.47L206.37,242a7.41,7.41,0,0,0,3.65,5.9l2.92,28.16H443L446,247.89a7.46,7.46,0,0,0,3.65-5.89l.76-6.59-3.14.22c-83.44,5.48-118-16.09-131.6-39.68-7.53-13.08-8.56-26.79-7.85-36.85.15-2.19.39-4.21.66-6a67.88,67.88,0,0,1,1.67-7.94H195.55A5.47,5.47,0,0,0,190.08,150.62Z"/><rect class="cls-28" x="157.41" y="200.85" width="4.06" height="74.68" transform="translate(318.88 476.39) rotate(-180)"/><rect class="cls-28" x="166.15" y="215.39" width="4.06" height="63.54" transform="translate(336.37 494.33) rotate(-180)"/><rect class="cls-28" x="103.46" y="215.39" width="4.06" height="63.54" transform="translate(210.98 494.33) rotate(-180)"/><rect class="cls-28" x="112.44" y="200.85" width="4.06" height="74.68" transform="translate(228.93 476.39) rotate(-180)"/><path class="cls-9" d="M96.82,176.67v11.82A14.27,14.27,0,0,0,111,202.73h51.8a14.27,14.27,0,0,0,14.23-14.23V176.67a14.27,14.27,0,0,0-14.23-14.23H111A14.27,14.27,0,0,0,96.82,176.67Z"/><path class="cls-9" d="M97.44,222.4V224h79.33V222.4a7.85,7.85,0,0,0-.18-1.67,8.12,8.12,0,0,0-7.95-6.44H105.57A8.12,8.12,0,0,0,97.44,222.4Z"/><rect class="cls-28" x="70.74" y="200.85" width="4.06" height="74.5" transform="translate(145.54 476.21) rotate(-180)"/><rect class="cls-28" x="79.49" y="215.39" width="4.06" height="63.54" transform="translate(163.03 494.33) rotate(-180)"/><rect class="cls-28" x="16.79" y="215.39" width="4.06" height="63.54" transform="translate(37.64 494.33) rotate(-180)"/><rect class="cls-28" x="25.77" y="200.85" width="4.06" height="74.5" transform="translate(55.6 476.21) rotate(-180)"/><path class="cls-9" d="M10.16,176.67v11.82a14.27,14.27,0,0,0,14.23,14.23H76.18a14.28,14.28,0,0,0,14.23-14.23V176.67a14.27,14.27,0,0,0-14.23-14.23H24.39A14.27,14.27,0,0,0,10.16,176.67Z"/><path class="cls-9" d="M10.77,222.4V224H90.1V222.4a7.87,7.87,0,0,0-.21-1.84A8.12,8.12,0,0,0,82,214.29H18.9A8.12,8.12,0,0,0,10.77,222.4Z"/><path class="cls-22" d="M96.82,176.67v11.82A14.27,14.27,0,0,0,111,202.73h51.8a14.23,14.23,0,0,0,10.54-4.7c-49.31.52-46.53-30.4-45.71-35.59H111A14.27,14.27,0,0,0,96.82,176.67Z"/><path class="cls-22" d="M97.44,222.4V224h79.33V222.4a7.85,7.85,0,0,0-.18-1.67c-36.93-.11-44.31-4.1-45.47-6.44H105.57A8.12,8.12,0,0,0,97.44,222.4Z"/><path class="cls-22" d="M10.16,176.67v11.82a14.27,14.27,0,0,0,14.23,14.23H76.18A14.11,14.11,0,0,0,85,199.61c-42.07.28-40-30.4-39-37.17H24.39A14.27,14.27,0,0,0,10.16,176.67Z"/><path class="cls-22" d="M10.77,222.4V224H90.1V222.4a7.87,7.87,0,0,0-.21-1.84c-26.78,1.92-36.73-3-40.36-6.27H18.9A8.12,8.12,0,0,0,10.77,222.4Z"/></g></g></g></svg>