<svg xmlns="http://www.w3.org/2000/svg" xmlns:xlink="http://www.w3.org/1999/xlink" viewBox="0 0 79.14 109.51"><defs><style>.cls-1{fill:#303030;opacity:0.15;}.cls-2{fill:#be4607;}.cls-3{fill:#92380e;}.cls-4{fill:url(#linear-gradient);}.cls-5{fill:#005431;}.cls-6{fill:url(#linear-gradient-2);}.cls-7{fill:url(#linear-gradient-3);}.cls-8{fill:url(#linear-gradient-4);}.cls-9{fill:url(#linear-gradient-5);}.cls-10{fill:url(#linear-gradient-6);}.cls-11{fill:url(#linear-gradient-7);}.cls-12{fill:url(#linear-gradient-8);}.cls-13{fill:url(#linear-gradient-9);}.cls-14{fill:url(#linear-gradient-10);}.cls-15{fill:#5d3116;}</style><linearGradient id="linear-gradient" x1="137.93" y1="31.03" x2="147.81" y2="7.4" gradientTransform="matrix(-0.9, 0.43, 0.43, 0.9, 151.44, -52.54)" gradientUnits="userSpaceOnUse"><stop offset="0" stop-color="#007b5a"/><stop offset="1" stop-color="#00b45a"/></linearGradient><linearGradient id="linear-gradient-2" x1="148.19" y1="48.04" x2="159.61" y2="20.73" gradientTransform="matrix(-0.56, 0.83, 0.83, 0.56, 78.96, -97.65)" xlink:href="#linear-gradient"/><linearGradient id="linear-gradient-3" x1="133" y1="59.97" x2="142.5" y2="37.24" gradientTransform="translate(5.58 -92.17) rotate(48.01)" xlink:href="#linear-gradient"/><linearGradient id="linear-gradient-4" x1="114.07" y1="35.01" x2="120.76" y2="19" gradientTransform="translate(-40.84 -52.54) rotate(25.58)" xlink:href="#linear-gradient"/><linearGradient id="linear-gradient-5" x1="112.35" y1="39.71" x2="116.71" y2="29.27" gradientTransform="translate(-5.15 -75.3) rotate(44.71)" xlink:href="#linear-gradient"/><linearGradient id="linear-gradient-6" x1="129.24" y1="60.68" x2="133.6" y2="50.24" gradientTransform="matrix(0.02, 1, -1, 0.02, 105.58, -78.41)" xlink:href="#linear-gradient"/><linearGradient id="linear-gradient-7" x1="119.24" y1="55.81" x2="123.6" y2="45.37" gradientTransform="matrix(-0.52, 0.86, 0.86, 0.52, 54.36, -91.83)" xlink:href="#linear-gradient"/><linearGradient id="linear-gradient-8" x1="99.2" y1="47.46" x2="101.39" y2="42.23" gradientTransform="translate(-38.65 -54.9) rotate(15.5)" xlink:href="#linear-gradient"/><linearGradient id="linear-gradient-9" x1="127.15" y1="10.76" x2="132.74" y2="-2.62" xlink:href="#linear-gradient"/><linearGradient id="linear-gradient-10" x1="109.87" y1="13.25" x2="112.71" y2="6.46" gradientTransform="translate(-67.25 6.56) rotate(-4.7)" xlink:href="#linear-gradient"/></defs><title>Asset 1</title><g id="Layer_2" data-name="Layer 2"><g id="Isolation_Mode" data-name="Isolation Mode"><ellipse class="cls-1" cx="44.21" cy="105.14" rx="20.94" ry="4.38"/><rect class="cls-2" x="21.14" y="70.81" width="45.58" height="6.42" rx="2.28" ry="2.28"/><polygon class="cls-2" points="55.88 105.69 31.97 105.69 24.87 77.23 62.98 77.23 55.88 105.69"/><path class="cls-3" d="M62.09,80.79,63,77.23H24.87l4.73,19C34,83.62,49,79.23,62.09,80.79Z"/><path class="cls-4" d="M42.37,38.92c-.31-2.25.09-7.79-1.43-11.86A22.89,22.89,0,0,0,31.27,16.2c-4.14-2.27-9-2.66-10.92-2.3s-3.13.3-3.91-.2c1,1.89,0,7.69,3.62,13.19a25.11,25.11,0,0,0,11,9.46C36.34,38.64,39.79,37.43,42.37,38.92Z"/><path class="cls-5" d="M20.9,17.56c3,1.94,9.73,7.56,16,14.4a97.06,97.06,0,0,1,7.56,9.09c.3.46-.42,1-.85.35s-4.09-5.35-7.37-9A132.34,132.34,0,0,0,20.9,17.56Z"/><path class="cls-5" d="M40.36,36.45a20.38,20.38,0,0,0,.63-5,13.13,13.13,0,0,0-.76-5,13.21,13.21,0,0,1,.94,5,20.63,20.63,0,0,1-.46,5.07Z"/><path class="cls-5" d="M39.28,35.38a27.39,27.39,0,0,0,.57-5.33,23.58,23.58,0,0,0-.5-5.35A23.67,23.67,0,0,1,40,30.05a27.63,27.63,0,0,1-.4,5.4Z"/><path class="cls-5" d="M38,33.77a23.63,23.63,0,0,0,.89-5.08,17.32,17.32,0,0,0-.38-5.16A17.41,17.41,0,0,1,39,28.69a23.87,23.87,0,0,1-.73,5.18Z"/><path class="cls-5" d="M36.68,31.9a20.92,20.92,0,0,0,1.16-4.82,13.27,13.27,0,0,0-.28-5,13.36,13.36,0,0,1,.46,5A21.17,21.17,0,0,1,37,32Z"/><path class="cls-5" d="M35.43,30.82A31.56,31.56,0,0,0,36.62,26a13.55,13.55,0,0,0,0-5,13.64,13.64,0,0,1,.15,5,31.8,31.8,0,0,1-1,4.91Z"/><path class="cls-5" d="M33.89,29.23a21.26,21.26,0,0,0,1.5-4.51A12.91,12.91,0,0,0,35.57,20a13,13,0,0,1,0,4.79,21.51,21.51,0,0,1-1.35,4.63Z"/><path class="cls-5" d="M32.72,28A30.91,30.91,0,0,0,34,23.6a20.86,20.86,0,0,0,.47-4.52,21,21,0,0,1-.29,4.56,31.16,31.16,0,0,1-1.08,4.46Z"/><path class="cls-5" d="M31.43,26.89A15.83,15.83,0,0,0,33,22.62a10.66,10.66,0,0,0,0-4.56,10.75,10.75,0,0,1,.14,4.6,16.08,16.08,0,0,1-1.45,4.41Z"/><path class="cls-5" d="M30.14,25.4a5.28,5.28,0,0,0,1.18-1.75,7.62,7.62,0,0,0,.55-2.09,10.05,10.05,0,0,0,0-2.18c0-.36-.11-.72-.16-1.09l-.25-1.07.3,1.06c.07.36.16.72.21,1.08a10.19,10.19,0,0,1,.09,2.21,7.84,7.84,0,0,1-.48,2.17,5.54,5.54,0,0,1-1.2,1.92Z"/><path class="cls-5" d="M29.18,24.54a11.5,11.5,0,0,0,1.12-4,10,10,0,0,0,0-2.09,10.32,10.32,0,0,0-.42-2.06,10.37,10.37,0,0,1,.51,2,10.11,10.11,0,0,1,.09,2.12,11.75,11.75,0,0,1-1,4.14Z"/><path class="cls-5" d="M28.22,23.74a11.3,11.3,0,0,0,.67-4.1A10.89,10.89,0,0,0,28,15.53a11,11,0,0,1,1.05,4.1,11.54,11.54,0,0,1-.51,4.25Z"/><path class="cls-5" d="M27.14,22.69a17.13,17.13,0,0,0,.19-3.81,11.08,11.08,0,0,0-.85-3.73,11.17,11.17,0,0,1,1,3.72,17.38,17.38,0,0,1,0,3.89Z"/><path class="cls-5" d="M26.24,22A34.66,34.66,0,0,0,26,18.33a17.29,17.29,0,0,0-.34-1.83,5.78,5.78,0,0,0-.67-1.73,5.82,5.82,0,0,1,.76,1.71,17.42,17.42,0,0,1,.43,1.83A34.91,34.91,0,0,1,26.61,22Z"/><path class="cls-5" d="M25.17,20.9a1.48,1.48,0,0,0,.13-.73,6.35,6.35,0,0,0-.08-.86,10.46,10.46,0,0,0-.41-1.7,10.71,10.71,0,0,0-1.6-3.13A10.8,10.8,0,0,1,25,17.54a10.68,10.68,0,0,1,.51,1.71,6.64,6.64,0,0,1,.12.9,1.6,1.6,0,0,1-.17,1Z"/><path class="cls-5" d="M23.95,19.84a1.79,1.79,0,0,0,0-.6,7.39,7.39,0,0,0-.12-.73,14.88,14.88,0,0,0-.38-1.45,7.86,7.86,0,0,0-1.33-2.69A5,5,0,0,1,23,15.6,13.62,13.62,0,0,1,23.62,17a15.1,15.1,0,0,1,.48,1.45,7.68,7.68,0,0,1,.17.75,2.94,2.94,0,0,1,0,.4.77.77,0,0,1-.1.49Z"/><path class="cls-5" d="M22.83,19c0,.05,0-.09,0-.17a2.67,2.67,0,0,0,0-.3c0-.2-.06-.41-.1-.62a10.92,10.92,0,0,0-.33-1.22,8,8,0,0,0-.49-1.17,3.34,3.34,0,0,0-.75-1,3.38,3.38,0,0,1,.83,1,8.15,8.15,0,0,1,.58,1.15A11.15,11.15,0,0,1,23,17.85c.06.21.11.42.15.64a3,3,0,0,1,0,.33.83.83,0,0,1,0,.18.44.44,0,0,1-.09.26Z"/><path class="cls-5" d="M21.8,18.18a0,0,0,0,0,0,0v0a.51.51,0,0,0,0-.11c0-.08,0-.17,0-.25s-.09-.34-.14-.51a10.71,10.71,0,0,0-.37-1,5.75,5.75,0,0,0-1.13-1.83,5.83,5.83,0,0,1,1.3,1.75,10.93,10.93,0,0,1,.46,1c.07.17.13.35.19.52s.05.18.07.28a.8.8,0,0,1,0,.16v.09a.45.45,0,0,1-.07.17Z"/><path class="cls-5" d="M40.82,36.44a22.9,22.9,0,0,1-5,.38,11.81,11.81,0,0,1-4.84-1,11.73,11.73,0,0,0,4.84.84,22.64,22.64,0,0,0,4.89-.56Z"/><path class="cls-5" d="M39.77,35.32a29.56,29.56,0,0,1-5.35.29,21.15,21.15,0,0,1-5.27-.82,21.06,21.06,0,0,0,5.28.64A29.3,29.3,0,0,0,39.71,35Z"/><path class="cls-5" d="M38.23,33.93c-1.78.19-3.55.28-5.33.29a31.71,31.71,0,0,1-5.31-.38,31.62,31.62,0,0,0,5.31.19c1.77-.07,3.54-.22,5.28-.47Z"/><path class="cls-5" d="M36.44,32.57a33.56,33.56,0,0,1-5,.58,20.35,20.35,0,0,1-5-.37,20.26,20.26,0,0,0,5,.19,33.31,33.31,0,0,0,5-.75Z"/><path class="cls-5" d="M35.41,31.29a49.07,49.07,0,0,1-5,.67,21,21,0,0,1-5-.1,20.89,20.89,0,0,0,5-.08,48.81,48.81,0,0,0,4.95-.84Z"/><path class="cls-5" d="M33.93,29.66a30.27,30.27,0,0,1-4.77,1.17,14.83,14.83,0,0,1-4.88.06,14.74,14.74,0,0,0,4.85-.24,30,30,0,0,0,4.68-1.33Z"/><path class="cls-5" d="M32.7,28.44a31.1,31.1,0,0,1-4.62,1.1,19,19,0,0,1-4.72.21A18.9,18.9,0,0,0,28,29.37a30.86,30.86,0,0,0,4.53-1.26Z"/><path class="cls-5" d="M31.71,27.1a25.14,25.14,0,0,1-4.81,1.17,17.05,17.05,0,0,1-4.92,0,17,17,0,0,0,4.89-.21,24.9,24.9,0,0,0,4.7-1.33Z"/><path class="cls-5" d="M30.35,25.7a15.44,15.44,0,0,1-4.69,1.23,19.18,19.18,0,0,1-4.81-.1,19.09,19.09,0,0,0,4.79-.08,15.22,15.22,0,0,0,4.54-1.37Z"/><path class="cls-5" d="M29.45,24.76a19.12,19.12,0,0,1-4.77.87,16.84,16.84,0,0,1-2.42,0,15.93,15.93,0,0,1-2.38-.37,15.87,15.87,0,0,0,2.39.28,16.7,16.7,0,0,0,2.4-.07,18.88,18.88,0,0,0,4.65-1Z"/><path class="cls-5" d="M28.32,23.86a29.21,29.21,0,0,1-4.57.52,16,16,0,0,1-4.55-.44,15.86,15.86,0,0,0,4.54.26,29,29,0,0,0,4.5-.69Z"/><path class="cls-5" d="M27.08,22.8a17.13,17.13,0,0,1-4.14.47,15.94,15.94,0,0,1-4.1-.54,15.85,15.85,0,0,0,4.1.35,16.89,16.89,0,0,0,4-.63Z"/><path class="cls-5" d="M25.86,21.69a4.87,4.87,0,0,1-1.86.48,13.78,13.78,0,0,1-1.87.06,12.13,12.13,0,0,1-3.65-.66,12,12,0,0,0,3.65.47A13.55,13.55,0,0,0,24,21.9a4.66,4.66,0,0,0,1.69-.51Z"/><path class="cls-5" d="M25.05,21.06a5.76,5.76,0,0,1-1.75.3,11.75,11.75,0,0,1-1.74-.06,12.12,12.12,0,0,1-3.35-.85,12,12,0,0,0,3.36.67,11.52,11.52,0,0,0,1.71,0,5.5,5.5,0,0,0,1.62-.36Z"/><path class="cls-5" d="M24,20a1.35,1.35,0,0,1-.8.34,5.17,5.17,0,0,1-.77.06A8.14,8.14,0,0,1,21,20.24a8.83,8.83,0,0,1-2.81-1,8.74,8.74,0,0,0,2.83.85,7.92,7.92,0,0,0,1.47,0,4.88,4.88,0,0,0,.72-.1,1.32,1.32,0,0,0,.55-.23Z"/><path class="cls-5" d="M22.73,19a1.05,1.05,0,0,1-.71.22,3.57,3.57,0,0,1-.66-.05,8.35,8.35,0,0,1-1.24-.32,13.93,13.93,0,0,1-2.32-1,13.84,13.84,0,0,0,2.37.84,8.13,8.13,0,0,0,1.22.22c.38,0,.88,0,1.07-.15Z"/><path class="cls-5" d="M22.08,18.42a.46.46,0,0,1-.15.1l-.11,0h-.18l-.32-.05a5.51,5.51,0,0,1-.6-.17,9.94,9.94,0,0,1-1.14-.47,11.25,11.25,0,0,1-2.07-1.29,11.16,11.16,0,0,0,2.14,1.12,9.71,9.71,0,0,0,1.14.37,5.22,5.22,0,0,0,.58.12l.28,0c.07,0,.22,0,.14,0Z"/><path class="cls-5" d="M21.16,17.69c-.67-.45-1.27-1-1.91-1.47s-1.23-1-1.8-1.61c.67.45,1.28,1,1.91,1.47S20.59,17.12,21.16,17.69Z"/><path class="cls-6" d="M40.64,55c-1.64-2.05-4.49-7.8-8.4-11s-10.56-5.29-16-5.11S5.69,41.55,4,43s-2.94,2.14-4,2.11c2.13,1.27,4.49,7.67,11.37,11A29,29,0,0,0,27.92,59C34.49,58.23,37.21,55,40.64,55Z"/><path class="cls-5" d="M6.72,46.34c4.13.17,14.13,1.8,24.34,4.94a112.2,112.2,0,0,1,12.87,4.6c.57.28.18,1.26-.64.85s-7.22-2.92-12.64-4.63A153,153,0,0,0,6.72,46.34Z"/><path class="cls-5" d="M37.19,53.69a23.55,23.55,0,0,0-2.31-5.32,15.17,15.17,0,0,0-3.68-4.49,15.27,15.27,0,0,1,3.86,4.38,23.84,23.84,0,0,1,2.53,5.31Z"/><path class="cls-5" d="M35.49,53.26a31.65,31.65,0,0,0-2.57-5.64,27.26,27.26,0,0,0-3.65-5,27.36,27.36,0,0,1,3.83,4.92,31.94,31.94,0,0,1,2.79,5.61Z"/><path class="cls-5" d="M33.23,52.43a27.31,27.31,0,0,0-2.1-5.58,20,20,0,0,0-3.42-4.91,20.12,20.12,0,0,1,3.6,4.81,27.59,27.59,0,0,1,2.32,5.58Z"/><path class="cls-5" d="M30.85,51.32a24.18,24.18,0,0,0-1.68-5.48A15.34,15.34,0,0,0,26,41.08a15.45,15.45,0,0,1,3.39,4.67,24.47,24.47,0,0,1,1.9,5.5Z"/><path class="cls-5" d="M29,51a36.48,36.48,0,0,0-1.66-5.49,15.66,15.66,0,0,0-2.89-4.94,15.76,15.76,0,0,1,3.08,4.86,36.76,36.76,0,0,1,1.88,5.48Z"/><path class="cls-5" d="M26.51,50.31a24.58,24.58,0,0,0-1.16-5.37,14.93,14.93,0,0,0-2.62-4.83,15,15,0,0,1,2.82,4.76,24.86,24.86,0,0,1,1.38,5.4Z"/><path class="cls-5" d="M24.6,49.75a35.73,35.73,0,0,0-1.34-5.07,24.11,24.11,0,0,0-2.2-4.78,24.22,24.22,0,0,1,2.39,4.7A36,36,0,0,1,25,49.67Z"/><path class="cls-5" d="M22.68,49.43a18.3,18.3,0,0,0-.93-5.18,14,14,0,0,0-1.07-2.42,11.47,11.47,0,0,0-1.57-2.14,11.52,11.52,0,0,1,1.66,2.09A14.2,14.2,0,0,1,22,44.18a18.58,18.58,0,0,1,1.15,5.25Z"/><path class="cls-5" d="M20.53,48.71a6.11,6.11,0,0,0,.15-2.43,8.8,8.8,0,0,0-.68-2.4,11.62,11.62,0,0,0-1.28-2.17c-.25-.34-.53-.66-.8-1L17,39.8l.92.88c.28.32.58.62.84,1a11.78,11.78,0,0,1,1.39,2.15,9.07,9.07,0,0,1,.8,2.45,6.41,6.41,0,0,1-.06,2.62Z"/><path class="cls-5" d="M19.06,48.42a13.29,13.29,0,0,0-1.24-4.63,11.53,11.53,0,0,0-1.24-2.08A11.93,11.93,0,0,0,15,39.91a12,12,0,0,1,1.72,1.74A11.68,11.68,0,0,1,18,43.7a13.58,13.58,0,0,1,1.47,4.7Z"/><path class="cls-5" d="M17.64,48.18a13.06,13.06,0,0,0-1.75-4.48,12.59,12.59,0,0,0-3.28-3.57,12.7,12.7,0,0,1,3.46,3.46,13.34,13.34,0,0,1,2,4.52Z"/><path class="cls-5" d="M15.94,47.78a19.8,19.8,0,0,0-2.06-3.91,12.81,12.81,0,0,0-3-3.22,12.91,12.91,0,0,1,3.21,3.09,20.09,20.09,0,0,1,2.28,3.88Z"/><path class="cls-5" d="M14.67,47.66a40.05,40.05,0,0,0-2.47-3.52,20,20,0,0,0-1.42-1.62,6.68,6.68,0,0,0-1.69-1.33,6.73,6.73,0,0,1,1.76,1.25A20.14,20.14,0,0,1,12.36,44,40.35,40.35,0,0,1,15,47.43Z"/><path class="cls-5" d="M12.93,47.15a1.71,1.71,0,0,0-.3-.8,7.34,7.34,0,0,0-.58-.81,12.09,12.09,0,0,0-1.41-1.45A12.38,12.38,0,0,0,7.2,41.92a12.49,12.49,0,0,1,3.57,2,12.35,12.35,0,0,1,1.52,1.4,7.67,7.67,0,0,1,.65.82,1.84,1.84,0,0,1,.41,1.08Z"/><path class="cls-5" d="M11.09,46.82a1.34,1.34,0,0,0-.11-.26,3,3,0,0,0-.23-.34,8.55,8.55,0,0,0-.55-.66A17.2,17.2,0,0,0,9,44.34a15.59,15.59,0,0,0-1.37-1.08A5.67,5.67,0,0,0,6,42.45a5.72,5.72,0,0,1,1.6.72,15.74,15.74,0,0,1,1.44,1,17.46,17.46,0,0,1,1.33,1.16A8.87,8.87,0,0,1,11,46a3.39,3.39,0,0,1,.28.37.89.89,0,0,1,.19.55Z"/><path class="cls-5" d="M9.49,46.65s0,0,0,0l0-.05a.62.62,0,0,0-.07-.14,3.09,3.09,0,0,0-.2-.29c-.14-.19-.3-.38-.46-.56a12.63,12.63,0,0,0-1-1,9.27,9.27,0,0,0-1.17-.88,3.86,3.86,0,0,0-1.35-.57,3.91,3.91,0,0,1,1.4.48,9.42,9.42,0,0,1,1.25.8,12.88,12.88,0,0,1,1.14,1c.18.17.36.35.52.55a3.46,3.46,0,0,1,.24.31,1,1,0,0,1,.11.18.58.58,0,0,1,.05.11.7.7,0,0,1,0,.2Z"/><path class="cls-5" d="M8,46.43a0,0,0,0,0,0,.05l0,0a.59.59,0,0,0-.07-.11c-.05-.08-.13-.15-.19-.23s-.29-.29-.44-.43a12.38,12.38,0,0,0-1-.79,6.65,6.65,0,0,0-2.2-1.15,6.74,6.74,0,0,1,2.32,1,12.64,12.64,0,0,1,1.05.72c.17.13.33.27.5.41s.16.15.24.24a.93.93,0,0,1,.12.14l.06.09a.53.53,0,0,1,0,.21Z"/><path class="cls-5" d="M37.64,53.41a26.47,26.47,0,0,1-4.72,3.31,13.65,13.65,0,0,1-5.41,1.83,13.55,13.55,0,0,0,5.31-2,26.17,26.17,0,0,0,4.54-3.43Z"/><path class="cls-5" d="M35.95,52.91a34.17,34.17,0,0,1-5.15,3.44,24.45,24.45,0,0,1-5.73,2.28,24.35,24.35,0,0,0,5.63-2.47,33.87,33.87,0,0,0,5-3.58Z"/><path class="cls-5" d="M33.59,52.44c-1.66,1.23-3.37,2.37-5.13,3.43A36.65,36.65,0,0,1,23,58.61a36.54,36.54,0,0,0,5.39-2.93c1.72-1.11,3.39-2.31,5-3.58Z"/><path class="cls-5" d="M31,52.13a38.79,38.79,0,0,1-4.66,3.54,23.52,23.52,0,0,1-5.21,2.59,23.42,23.42,0,0,0,5.1-2.76,38.51,38.51,0,0,0,4.48-3.67Z"/><path class="cls-5" d="M29.23,51.46a56.71,56.71,0,0,1-4.59,3.61,24.25,24.25,0,0,1-5.07,2.86,24.15,24.15,0,0,0,4.94-3,56.43,56.43,0,0,0,4.43-3.75Z"/><path class="cls-5" d="M26.8,50.72a35,35,0,0,1-4.06,4,17.14,17.14,0,0,1-4.82,2.94,17,17,0,0,0,4.68-3.1,34.7,34.7,0,0,0,3.87-4.08Z"/><path class="cls-5" d="M24.86,50.23A36,36,0,0,1,20.91,54a22,22,0,0,1-4.58,3,21.84,21.84,0,0,0,4.44-3.15A35.67,35.67,0,0,0,24.54,50Z"/><path class="cls-5" d="M23.08,49.47a29.06,29.06,0,0,1-4.1,4,19.71,19.71,0,0,1-4.88,2.93,19.61,19.61,0,0,0,4.74-3.09,28.78,28.78,0,0,0,3.9-4.09Z"/><path class="cls-5" d="M20.91,48.89a17.84,17.84,0,0,1-3.94,4,20.93,20.93,0,0,1-2.34,1.52,23.31,23.31,0,0,1-2.5,1.21,23.25,23.25,0,0,0,2.45-1.3,20.77,20.77,0,0,0,2.26-1.6,19.8,19.8,0,0,0,2-1.88,14.46,14.46,0,0,0,1.69-2.15Z"/><path class="cls-5" d="M19.46,48.47a22.1,22.1,0,0,1-4.23,3.67,19.45,19.45,0,0,1-2.42,1.4,18.4,18.4,0,0,1-2.59,1,18.35,18.35,0,0,0,2.54-1.13A19.3,19.3,0,0,0,15.1,52a21.82,21.82,0,0,0,4-3.77Z"/><path class="cls-5" d="M17.81,48.24a33.77,33.77,0,0,1-4.24,3.2,18.44,18.44,0,0,1-4.79,2.24,18.34,18.34,0,0,0,4.67-2.42,33.48,33.48,0,0,0,4.07-3.33Z"/><path class="cls-5" d="M15.95,47.92a19.8,19.8,0,0,1-3.84,2.9,18.43,18.43,0,0,1-4.4,1.88A18.32,18.32,0,0,0,12,50.64a19.53,19.53,0,0,0,3.65-3Z"/><path class="cls-5" d="M14.09,47.54a5.62,5.62,0,0,1-1.56,1.57,15.93,15.93,0,0,1-1.82,1.16,14,14,0,0,1-4,1.49,13.92,13.92,0,0,0,3.91-1.68,15.67,15.67,0,0,0,1.74-1.22,5.39,5.39,0,0,0,1.38-1.5Z"/><path class="cls-5" d="M12.91,47.38a6.66,6.66,0,0,1-1.57,1.32,13.58,13.58,0,0,1-1.77,1,14,14,0,0,1-3.83,1.13,13.91,13.91,0,0,0,3.74-1.31,13.32,13.32,0,0,0,1.68-1,6.36,6.36,0,0,0,1.4-1.31Z"/><path class="cls-5" d="M11.25,46.9a1.56,1.56,0,0,1-.59.81,6,6,0,0,1-.73.51A9.41,9.41,0,0,1,8.35,49,10.21,10.21,0,0,1,5,49.6a10.1,10.1,0,0,0,3.32-.82A9.15,9.15,0,0,0,9.76,48a5.64,5.64,0,0,0,.66-.52,1.52,1.52,0,0,0,.42-.56Z"/><path class="cls-5" d="M9.39,46.7a1.22,1.22,0,0,1-.58.64,4.13,4.13,0,0,1-.68.33,9.65,9.65,0,0,1-1.42.41,16.11,16.11,0,0,1-2.9.35,16,16,0,0,0,2.85-.56A9.4,9.4,0,0,0,8,47.38c.4-.19.89-.48,1-.78Z"/><path class="cls-5" d="M8.4,46.51a.53.53,0,0,1-.1.19l-.1.08a1.39,1.39,0,0,1-.18.11L7.67,47a6.37,6.37,0,0,1-.7.19,11.49,11.49,0,0,1-1.4.2,13,13,0,0,1-2.81-.07,12.9,12.9,0,0,0,2.79-.14,11.23,11.23,0,0,0,1.35-.3,6,6,0,0,0,.64-.22l.29-.14L8,46.45l0,0s0,0,0,0Z"/><path class="cls-5" d="M7.05,46.33a36.66,36.66,0,0,1-5.51-.89A36.66,36.66,0,0,1,7.05,46.33Z"/><path class="cls-7" d="M46.83,49.56c1.1-1.89,2.78-7,5.62-10A22,22,0,0,1,65,33.43a18.63,18.63,0,0,1,10.55,2c1.55,1,2.67,1.41,3.55,1.26-1.6,1.3-2.79,6.85-8.06,10.4a24.14,24.14,0,0,1-13.29,4.36C52.29,51.53,49.66,49.18,46.83,49.56Z"/><path class="cls-5" d="M73.75,38.45a96.51,96.51,0,0,0-19.46,7,93.33,93.33,0,0,0-10.05,5.31c-.44.29,0,1.06.63.62s5.6-3.26,9.86-5.31A127.27,127.27,0,0,1,73.75,38.45Z"/><path class="cls-5" d="M49.18,48.06a19.84,19.84,0,0,1,1.46-4.67,12.71,12.71,0,0,1,2.66-4.06,12.62,12.62,0,0,0-2.5,4.13,19.6,19.6,0,0,0-1.27,4.65Z"/><path class="cls-5" d="M50.53,47.49a26.58,26.58,0,0,1,1.63-5A22.77,22.77,0,0,1,54.73,38a22.68,22.68,0,0,0-2.41,4.58,26.34,26.34,0,0,0-1.45,4.95Z"/><path class="cls-5" d="M52.29,46.56a23,23,0,0,1,1.25-4.87,16.74,16.74,0,0,1,2.4-4.39,16.65,16.65,0,0,0-2.23,4.45,22.72,22.72,0,0,0-1.07,4.85Z"/><path class="cls-5" d="M54.11,45.4A20.36,20.36,0,0,1,55,40.64a12.85,12.85,0,0,1,2.24-4.25,12.76,12.76,0,0,0-2.07,4.3,20.12,20.12,0,0,0-.73,4.71Z"/><path class="cls-5" d="M55.61,44.88a30.59,30.59,0,0,1,.9-4.74,13.11,13.11,0,0,1,2-4.37,13,13,0,0,0-1.79,4.41A30.35,30.35,0,0,0,56,44.91Z"/><path class="cls-5" d="M57.57,44.07a20.68,20.68,0,0,1,.5-4.61,12.51,12.51,0,0,1,1.76-4.25,12.42,12.42,0,0,0-1.59,4.29,20.45,20.45,0,0,0-.32,4.56Z"/><path class="cls-5" d="M59.07,43.35A30,30,0,0,1,59.75,39a20.15,20.15,0,0,1,1.41-4.16A20.06,20.06,0,0,0,59.92,39a29.73,29.73,0,0,0-.5,4.34Z"/><path class="cls-5" d="M60.62,42.92a15.46,15.46,0,0,1,.33-4.46,10.34,10.34,0,0,1,1.81-4,10.25,10.25,0,0,0-1.64,4.07A15.22,15.22,0,0,0,61,42.88Z"/><path class="cls-5" d="M62.34,42.19A5.33,5.33,0,0,1,62,40a7.54,7.54,0,0,1,.37-2.11A9.8,9.8,0,0,1,63.24,36c.18-.31.39-.59.58-.89l.65-.83-.62.86c-.18.3-.38.6-.54.91a9.67,9.67,0,0,0-.8,1.94A7.32,7.32,0,0,0,62.25,40a5.08,5.08,0,0,0,.41,2Z"/><path class="cls-5" d="M63.48,41.65a11.3,11.3,0,0,1,.65-4,10,10,0,0,1,2.07-3.48,10,10,0,0,0-1.9,3.54,11.06,11.06,0,0,0-.47,4Z"/><path class="cls-5" d="M64.62,41.25a11.1,11.1,0,0,1,1.1-4A10.57,10.57,0,0,1,68.17,34a10.48,10.48,0,0,0-2.28,3.33A10.87,10.87,0,0,0,65,41.25Z"/><path class="cls-5" d="M66,40.65a16.71,16.71,0,0,1,1.42-3.46,10.74,10.74,0,0,1,2.28-2.93,10.66,10.66,0,0,0-2.12,3,16.48,16.48,0,0,0-1.23,3.46Z"/><path class="cls-5" d="M67,40.32a33.58,33.58,0,0,1,1.79-3.14,16.76,16.76,0,0,1,1.05-1.46,5.6,5.6,0,0,1,1.3-1.24A5.55,5.55,0,0,0,70,35.78a16.63,16.63,0,0,0-1,1.5,33.33,33.33,0,0,0-1.62,3.19Z"/><path class="cls-5" d="M68.4,40A1.53,1.53,0,0,1,68.6,39a6.38,6.38,0,0,1,.44-.75,10.27,10.27,0,0,1,1.08-1.34,10.39,10.39,0,0,1,2.7-2.07,10.3,10.3,0,0,0-2.57,2.19,10.06,10.06,0,0,0-1,1.36,6.11,6.11,0,0,0-.38.74,1.42,1.42,0,0,0-.15.7Z"/><path class="cls-5" d="M69.88,39.48A.74.74,0,0,1,70,39a2.82,2.82,0,0,1,.19-.33,7.38,7.38,0,0,1,.43-.61,14.53,14.53,0,0,1,1-1.12,7.64,7.64,0,0,1,2.3-1.78,7.56,7.56,0,0,0-2.17,1.9,14.31,14.31,0,0,0-.88,1.15,7.11,7.11,0,0,0-.38.61,1.72,1.72,0,0,0-.21.54Z"/><path class="cls-5" d="M71.18,39.17a.42.42,0,0,1,0-.27.8.8,0,0,1,.07-.16,2.87,2.87,0,0,1,.16-.28c.11-.18.24-.35.36-.51a10.72,10.72,0,0,1,.82-.93,7.84,7.84,0,0,1,.94-.81,3.25,3.25,0,0,1,1.09-.56,5,5,0,0,0-1.9,1.49,10.5,10.5,0,0,0-.74,1c-.11.17-.22.34-.31.51a2.57,2.57,0,0,0-.13.26c0,.07,0,.22-.06.16Z"/><path class="cls-5" d="M72.39,38.8a.44.44,0,0,1,0-.18l0-.08a.77.77,0,0,1,.08-.13c.05-.08.11-.15.17-.22s.24-.27.36-.4a10.51,10.51,0,0,1,.78-.72A5.61,5.61,0,0,1,75.61,36a5.53,5.53,0,0,0-1.68,1.21,10.31,10.31,0,0,0-.7.76c-.11.13-.21.27-.31.41s-.1.14-.13.21a.49.49,0,0,0,0,.1l0,0a0,0,0,0,0,0,0Z"/><path class="cls-5" d="M49.32,47.64a21.77,21.77,0,0,0,4.15,2.29,11.28,11.28,0,0,0,4.61,1,11.36,11.36,0,0,1-4.68-.87,22,22,0,0,1-4.28-2.16Z"/><path class="cls-5" d="M50.64,47a28.18,28.18,0,0,0,4.53,2.36,20.26,20.26,0,0,0,4.93,1.37,20.34,20.34,0,0,1-5-1.2,28.43,28.43,0,0,1-4.65-2.22Z"/><path class="cls-5" d="M52.52,46.35C54,47.2,55.5,48,57,48.7a30.4,30.4,0,0,0,4.79,1.77A30.49,30.49,0,0,1,57,48.86c-1.58-.66-3.12-1.4-4.63-2.21Z"/><path class="cls-5" d="M54.63,45.81a32,32,0,0,0,4.13,2.49A19.48,19.48,0,0,0,63.28,50a19.57,19.57,0,0,1-4.6-1.51,32.28,32.28,0,0,1-4.25-2.36Z"/><path class="cls-5" d="M56,45a47,47,0,0,0,4.09,2.56,20.09,20.09,0,0,0,4.43,1.91A20.17,20.17,0,0,1,60,47.76a47.18,47.18,0,0,1-4.21-2.43Z"/><path class="cls-5" d="M58,44.17a28.87,28.87,0,0,0,3.67,2.9,14.17,14.17,0,0,0,4.22,2,14.26,14.26,0,0,1-4.32-1.85,29.11,29.11,0,0,1-3.81-2.79Z"/><path class="cls-5" d="M59.5,43.54a29.68,29.68,0,0,0,3.56,2.79,18.17,18.17,0,0,0,4,2.06A18.26,18.26,0,0,1,63,46.47a29.92,29.92,0,0,1-3.7-2.67Z"/><path class="cls-5" d="M60.89,42.71a23.94,23.94,0,0,0,3.69,2.91,16.31,16.31,0,0,0,4.27,2,16.4,16.4,0,0,1-4.36-1.84A24.18,24.18,0,0,1,60.64,43Z"/><path class="cls-5" d="M62.64,42a14.63,14.63,0,0,0,3.53,2.88,18.36,18.36,0,0,0,4.23,1.83A18.45,18.45,0,0,1,66.08,45a14.85,14.85,0,0,1-3.71-2.81Z"/><path class="cls-5" d="M63.75,41.46a18.16,18.16,0,0,0,3.76,2.62,16,16,0,0,0,4.33,1.57,16,16,0,0,1-4.41-1.42,18.39,18.39,0,0,1-3.92-2.53Z"/><path class="cls-5" d="M65,41a27.86,27.86,0,0,0,3.74,2.26,15.25,15.25,0,0,0,4.13,1.44,15.34,15.34,0,0,1-4.21-1.28,28.09,28.09,0,0,1-3.87-2.14Z"/><path class="cls-5" d="M66.55,40.57a16.25,16.25,0,0,0,3.36,2,15.25,15.25,0,0,0,3.78,1.19,15.33,15.33,0,0,1-3.84-1,16.47,16.47,0,0,1-3.51-1.94Z"/><path class="cls-5" d="M68.11,40.11a4.49,4.49,0,0,0,1.31,1.08A13,13,0,0,0,71,42a11.58,11.58,0,0,0,3.42.92,11.67,11.67,0,0,1-3.48-.76,13.25,13.25,0,0,1-1.64-.74,4.68,4.68,0,0,1-1.47-1.11Z"/><path class="cls-5" d="M69,39.79a5.29,5.29,0,0,0,1.31.91,11.09,11.09,0,0,0,1.51.65,11.57,11.57,0,0,0,3.23.64,11.66,11.66,0,0,1-3.29-.47,11.3,11.3,0,0,1-1.57-.58A5.54,5.54,0,0,1,68.78,40Z"/><path class="cls-5" d="M70.43,39.38a1.27,1.27,0,0,0,.41.41,4.69,4.69,0,0,0,.6.35,7.61,7.61,0,0,0,1.32.5,8.41,8.41,0,0,0,2.83.28,8.49,8.49,0,0,1-2.87-.11,7.83,7.83,0,0,1-1.39-.43,5,5,0,0,1-.66-.33c-.21-.15-.43-.24-.58-.6Z"/><path class="cls-5" d="M71.91,38.93c.1.24.54.42.9.53a7.82,7.82,0,0,0,1.17.25,13.31,13.31,0,0,0,2.41.12,13.4,13.4,0,0,1-2.43.05,8,8,0,0,1-1.22-.17,3.44,3.44,0,0,1-.6-.19,1,1,0,0,1-.55-.45Z"/><path class="cls-5" d="M72.72,38.68c-.05-.07.06,0,.13,0l.26.08a5,5,0,0,0,.56.11,9.35,9.35,0,0,0,1.15.09,10.73,10.73,0,0,0,2.31-.21,10.82,10.82,0,0,1-2.31.39,9.56,9.56,0,0,1-1.18,0,5.3,5.3,0,0,1-.6-.07l-.3-.07L72.58,39l-.09-.05a.44.44,0,0,1-.1-.14Z"/><path class="cls-5" d="M73.47,38.47c.72-.3,1.46-.51,2.19-.78s1.48-.45,2.24-.61c-.72.3-1.46.52-2.19.78S74.23,38.31,73.47,38.47Z"/><path class="cls-8" d="M45.63,30.94c.21-1.52-.06-5.28,1-8a15.5,15.5,0,0,1,6.55-7.36A13.13,13.13,0,0,1,60.54,14a3.75,3.75,0,0,0,2.65-.13c-.69,1.28,0,5.21-2.45,8.94a17,17,0,0,1-7.48,6.41C49.71,30.75,47.37,29.93,45.63,30.94Z"/><path class="cls-5" d="M60.17,16.47a68,68,0,0,0-10.81,9.76,65.75,65.75,0,0,0-5.12,6.16c-.21.31.29.69.58.24s2.77-3.63,5-6.11A89.66,89.66,0,0,1,60.17,16.47Z"/><path class="cls-5" d="M46.75,29.33a14,14,0,0,1-.31-3.43,9,9,0,0,1,.64-3.36,8.89,8.89,0,0,0-.52,3.36A13.8,13.8,0,0,0,47,29.27Z"/><path class="cls-5" d="M47.48,28.59a18.72,18.72,0,0,1-.27-3.66,16,16,0,0,1,.46-3.63,16,16,0,0,0-.34,3.63,18.55,18.55,0,0,0,.39,3.61Z"/><path class="cls-5" d="M48.38,27.52A16.17,16.17,0,0,1,47.88,24a11.79,11.79,0,0,1,.38-3.5A11.73,11.73,0,0,0,48,24a16,16,0,0,0,.61,3.44Z"/><path class="cls-5" d="M49.25,26.27a14.34,14.34,0,0,1-.68-3.34,9.05,9.05,0,0,1,.31-3.37,9,9,0,0,0-.19,3.35,14.17,14.17,0,0,0,.79,3.26Z"/><path class="cls-5" d="M50.09,25.53a21.54,21.54,0,0,1-.69-3.33,9.24,9.24,0,0,1,.1-3.37,9.18,9.18,0,0,0,0,3.35,21.38,21.38,0,0,0,.8,3.27Z"/><path class="cls-5" d="M51.14,24.48a14.57,14.57,0,0,1-.91-3.14,8.81,8.81,0,0,1,0-3.24,8.75,8.75,0,0,0,.12,3.22,14.4,14.4,0,0,0,1,3.06Z"/><path class="cls-5" d="M51.93,23.61A17.73,17.73,0,0,1,51,17.5a17.62,17.62,0,0,0,1.16,6Z"/><path class="cls-5" d="M52.82,22.91a10.89,10.89,0,0,1-1-3,7.28,7.28,0,0,1,.09-3.11,7.22,7.22,0,0,0,0,3.09A10.72,10.72,0,0,0,53,22.79Z"/><path class="cls-5" d="M53.75,22a4.49,4.49,0,0,1-1.14-2.77,6.9,6.9,0,0,1,.06-1.5A9.93,9.93,0,0,1,53,16.25a9.9,9.9,0,0,0-.28,1.46,6.81,6.81,0,0,0,0,1.48,5.16,5.16,0,0,0,.37,1.42,3.58,3.58,0,0,0,.8,1.18Z"/><path class="cls-5" d="M54.34,21.31a8,8,0,0,1-.66-2.81,7.07,7.07,0,0,1,.41-2.82,7.54,7.54,0,0,0,.47,5.52Z"/><path class="cls-5" d="M55,20.75a7.82,7.82,0,0,1-.35-2.88,7.44,7.44,0,0,1,.71-2.78,7.67,7.67,0,0,0-.14,5.56Z"/><path class="cls-5" d="M55.7,20a11.77,11.77,0,0,1,0-2.63,7.57,7.57,0,0,1,.7-2.52,9.46,9.46,0,0,0-.44,5.11Z"/><path class="cls-5" d="M56.3,19.5A23.65,23.65,0,0,1,56.62,17a6.71,6.71,0,0,1,.81-2.39A6.66,6.66,0,0,0,56.75,17a23.48,23.48,0,0,0-.2,2.51Z"/><path class="cls-5" d="M57.09,18.89a1.08,1.08,0,0,1-.12-.67,4.5,4.5,0,0,1,.08-.61,7.24,7.24,0,0,1,.35-1.16,7.32,7.32,0,0,1,1.2-2.08,7.26,7.26,0,0,0-1.08,2.12,7.08,7.08,0,0,0-.28,1.15,2.06,2.06,0,0,0,0,1.08Z"/><path class="cls-5" d="M57.92,18.18a.89.89,0,0,1,0-.6,5.2,5.2,0,0,1,.11-.51,10.23,10.23,0,0,1,.32-1,5.38,5.38,0,0,1,1-1.78,5.33,5.33,0,0,0-.9,1.82,10.08,10.08,0,0,0-.26,1,5,5,0,0,0-.08.5,1.21,1.21,0,0,0,0,.41Z"/><path class="cls-5" d="M58.69,17.63a.41.41,0,0,1-.06-.3,2,2,0,0,1,0-.23c0-.15.06-.29.1-.43a7.55,7.55,0,0,1,.29-.83,3.56,3.56,0,0,1,1-1.44,3.51,3.51,0,0,0-.84,1.48,7.4,7.4,0,0,0-.22.83c0,.14-.05.28-.07.42s0,.33,0,.32Z"/><path class="cls-5" d="M59.38,17.06a.31.31,0,0,1,0-.11v-.06a.54.54,0,0,1,0-.11c0-.07,0-.13,0-.19s.08-.24.13-.36a7.4,7.4,0,0,1,.31-.68,4,4,0,0,1,.88-1.19,3.9,3.9,0,0,0-.77,1.24,7.25,7.25,0,0,0-.25.69c0,.12-.07.23-.09.35s0,.12,0,.17,0,.15,0,.08Z"/><path class="cls-5" d="M46.73,29A15.34,15.34,0,0,0,50,29.4a7.94,7.94,0,0,0,3.28-.57,8,8,0,0,1-3.28.69,15.51,15.51,0,0,1-3.37-.26Z"/><path class="cls-5" d="M47.42,28.26a17.13,17.13,0,0,0,7.16-.12,17.25,17.25,0,0,1-7.2.36Z"/><path class="cls-5" d="M48.46,27.32a28.33,28.33,0,0,0,7.17.19,28.45,28.45,0,0,1-7.21.06Z"/><path class="cls-5" d="M49.7,26.4a22.57,22.57,0,0,0,3.36.51,13.72,13.72,0,0,0,3.4-.13A13.78,13.78,0,0,1,53,27a22.73,22.73,0,0,1-3.4-.39Z"/><path class="cls-5" d="M50.39,25.53a33.08,33.08,0,0,0,3.35.57,14.15,14.15,0,0,0,3.4.05,14.21,14.21,0,0,1-3.41.07,33.24,33.24,0,0,1-3.39-.45Z"/><path class="cls-5" d="M51.43,24.44a20.34,20.34,0,0,0,3.17.9,10,10,0,0,0,3.29.16,10,10,0,0,1-3.31,0,20.5,20.5,0,0,1-3.23-.79Z"/><path class="cls-5" d="M52.26,23.61a20.91,20.91,0,0,0,3.07.86,12.8,12.8,0,0,0,3.18.26,12.86,12.86,0,0,1-3.2-.14,21.07,21.07,0,0,1-3.13-.75Z"/><path class="cls-5" d="M52.94,22.7a16.86,16.86,0,0,0,3.19.9,11.49,11.49,0,0,0,3.32.14,11.55,11.55,0,0,1-3.33,0,17,17,0,0,1-3.26-.79Z"/><path class="cls-5" d="M53.88,21.77A10.31,10.31,0,0,0,57,22.7a12.93,12.93,0,0,0,3.24.06,13,13,0,0,1-3.26.07A10.46,10.46,0,0,1,53.77,22Z"/><path class="cls-5" d="M54.46,21.12a12.37,12.37,0,0,0,6.4.56,11.3,11.3,0,0,1-3.25.26,13,13,0,0,1-3.23-.59Z"/><path class="cls-5" d="M55.2,20.5a19.62,19.62,0,0,0,3,.47,10.75,10.75,0,0,0,3.08-.18,10.81,10.81,0,0,1-3.08.3,19.79,19.79,0,0,1-3.1-.35Z"/><path class="cls-5" d="M56.05,19.79a11.47,11.47,0,0,0,5.51.19A11.58,11.58,0,0,1,56,20Z"/><path class="cls-5" d="M56.94,19.07a3.16,3.16,0,0,0,1.14.35,9.18,9.18,0,0,0,1.24.1,8.16,8.16,0,0,0,2.47-.32,8.22,8.22,0,0,1-2.47.44,9.33,9.33,0,0,1-1.27,0,3.3,3.3,0,0,1-1.26-.33Z"/><path class="cls-5" d="M57.45,18.62a5.59,5.59,0,0,0,2.26.26A8.15,8.15,0,0,0,62,18.42a8.21,8.21,0,0,1-2.27.57,8,8,0,0,1-1.18,0,3.9,3.9,0,0,1-1.19-.2Z"/><path class="cls-5" d="M58.25,18a1.75,1.75,0,0,0,.86.22,5.36,5.36,0,0,0,1,0A5.92,5.92,0,0,0,62,17.59a6,6,0,0,1-1.9.7,5.52,5.52,0,0,1-1,.09A1.61,1.61,0,0,1,58,18.11Z"/><path class="cls-5" d="M59.1,17.28a1.1,1.1,0,0,0,.73.1,5.5,5.5,0,0,0,.83-.15,9.38,9.38,0,0,0,1.6-.57,9.44,9.44,0,0,1-1.57.69,5.66,5.66,0,0,1-.84.22,1.2,1.2,0,0,1-.92-.11Z"/><path class="cls-5" d="M59.56,16.9s.18,0,.29,0l.39-.08a6.58,6.58,0,0,0,.77-.25,7.56,7.56,0,0,0,1.45-.76,7.62,7.62,0,0,1-1.4.87,6.73,6.73,0,0,1-.77.32,3.72,3.72,0,0,1-.41.11l-.22,0c-.09,0-.14,0-.3-.07Z"/><path class="cls-5" d="M60,16.56a23,23,0,0,1,2.51-2.09A23,23,0,0,1,60,16.56Z"/><path class="cls-9" d="M45.39,33.32c.46-.89,1.09-3.26,2.31-4.74a10.11,10.11,0,0,1,5.61-3.13,8.56,8.56,0,0,1,4.89.62,2.45,2.45,0,0,0,1.66.48c-.7.64-1.1,3.21-3.42,5a11.09,11.09,0,0,1-6,2.35C47.94,34.08,46.68,33.07,45.39,33.32Z"/><path class="cls-5" d="M57.43,27.52a44.31,44.31,0,0,0-8.74,3.7,42.86,42.86,0,0,0-4.47,2.7c-.19.15,0,.49.3.27s2.48-1.64,4.38-2.7A58.45,58.45,0,0,1,57.43,27.52Z"/><path class="cls-5" d="M46.42,32.57A9.11,9.11,0,0,1,47,30.39a5.84,5.84,0,0,1,1.11-1.93,5.8,5.8,0,0,0-1,2,9,9,0,0,0-.46,2.17Z"/><path class="cls-5" d="M47,32.27A12.2,12.2,0,0,1,47.64,30a10.45,10.45,0,0,1,1.06-2.13,10.41,10.41,0,0,0-1,2.16,12.09,12.09,0,0,0-.53,2.31Z"/><path class="cls-5" d="M47.81,31.8a9.22,9.22,0,0,1,1.43-4.34A9.15,9.15,0,0,0,48,31.81Z"/><path class="cls-5" d="M48.61,31.22a9.35,9.35,0,0,1,.3-2.2,5.9,5.9,0,0,1,.91-2,7.43,7.43,0,0,0-1,4.2Z"/><path class="cls-5" d="M49.29,30.95a14,14,0,0,1,.29-2.2,6,6,0,0,1,.78-2.05,6,6,0,0,0-.71,2.07,13.93,13.93,0,0,0-.2,2.18Z"/><path class="cls-5" d="M50.16,30.52a9.5,9.5,0,0,1,.11-2.13,5.74,5.74,0,0,1,.69-2,7.37,7.37,0,0,0-.64,4.11Z"/><path class="cls-5" d="M50.84,30.15a11.56,11.56,0,0,1,.73-4,11.49,11.49,0,0,0-.57,4Z"/><path class="cls-5" d="M51.53,29.92a7.1,7.1,0,0,1,0-2.05,4.75,4.75,0,0,1,.72-1.9,5.78,5.78,0,0,0-.6,3.92Z"/><path class="cls-5" d="M52.3,29.53a2.92,2.92,0,0,1-.11-2,5.1,5.1,0,0,1,.88-1.73,5.06,5.06,0,0,0-.8,1.75,2.82,2.82,0,0,0,.17,1.85Z"/><path class="cls-5" d="M52.81,29.26a5,5,0,0,1,1.05-3.52,4.92,4.92,0,0,0-.89,3.5Z"/><path class="cls-5" d="M53.32,29a5.08,5.08,0,0,1,1.43-3.4A5,5,0,0,0,53.49,29Z"/><path class="cls-5" d="M53.93,28.73a6.24,6.24,0,0,1,1.52-3,6.16,6.16,0,0,0-1.37,3.05Z"/><path class="cls-5" d="M54.41,28.55a15.42,15.42,0,0,1,.74-1.49,4.38,4.38,0,0,1,1-1.3,4.34,4.34,0,0,0-.94,1.34,15.31,15.31,0,0,0-.66,1.51Z"/><path class="cls-5" d="M55,28.35a1.29,1.29,0,0,1,.25-.79,4.72,4.72,0,0,1,.46-.64,4.77,4.77,0,0,1,1.18-1A4.73,4.73,0,0,0,55.8,27a4.62,4.62,0,0,0-.42.65,1.34,1.34,0,0,0-.21.67Z"/><path class="cls-5" d="M55.69,28.09c0-.34.17-.46.29-.67a6.67,6.67,0,0,1,.41-.54,3.51,3.51,0,0,1,1-.88,3.47,3.47,0,0,0-.95.93,6.58,6.58,0,0,0-.37.55,1.72,1.72,0,0,0-.24.54Z"/><path class="cls-5" d="M56.28,27.92c0-.2.06-.23.09-.33l.15-.24a4.92,4.92,0,0,1,.35-.45,2.32,2.32,0,0,1,.89-.68,2.29,2.29,0,0,0-.83.73,4.82,4.82,0,0,0-.31.46,2.15,2.15,0,0,0-.21.44Z"/><path class="cls-5" d="M56.82,27.71c0-.2.07-.2.11-.29l.15-.19a4.83,4.83,0,0,1,.34-.35,2.58,2.58,0,0,1,.8-.54,2.54,2.54,0,0,0-.74.6,4.73,4.73,0,0,0-.3.37c-.09.1-.19.32-.22.34Z"/><path class="cls-5" d="M46.48,32.38a10,10,0,0,0,2,.94,5.18,5.18,0,0,0,2.14.35,5.22,5.22,0,0,1-2.17-.27,10.11,10.11,0,0,1-2-.88Z"/><path class="cls-5" d="M47.07,32.06a11.17,11.17,0,0,0,4.43,1.46A11.25,11.25,0,0,1,47,32.2Z"/><path class="cls-5" d="M47.91,31.7a18.48,18.48,0,0,0,4.38,1.65,18.55,18.55,0,0,1-4.45-1.5Z"/><path class="cls-5" d="M48.86,31.4a11.65,11.65,0,0,0,4.08,1.68,11.72,11.72,0,0,1-4.16-1.54Z"/><path class="cls-5" d="M49.48,31a21.55,21.55,0,0,0,1.94,1.07,9.23,9.23,0,0,0,2.08.76,9.26,9.26,0,0,1-2.12-.69,21.67,21.67,0,0,1-2-1Z"/><path class="cls-5" d="M50.35,30.56a13.26,13.26,0,0,0,1.76,1.23,6.51,6.51,0,0,0,2,.8,6.55,6.55,0,0,1-2-.73,13.37,13.37,0,0,1-1.82-1.18Z"/><path class="cls-5" d="M51,30.23a10.83,10.83,0,0,0,3.61,2,10.91,10.91,0,0,1-3.71-1.9Z"/><path class="cls-5" d="M51.65,29.81a9.27,9.27,0,0,0,3.78,2,9.34,9.34,0,0,1-3.89-1.91Z"/><path class="cls-5" d="M52.43,29.44a7.63,7.63,0,0,0,3.68,2,7.69,7.69,0,0,1-3.8-1.85Z"/><path class="cls-5" d="M52.93,29.16a8.07,8.07,0,0,0,3.82,1.71,8.14,8.14,0,0,1-3.92-1.59Z"/><path class="cls-5" d="M53.51,28.94a9.52,9.52,0,0,0,3.71,1.49,9.59,9.59,0,0,1-3.8-1.35Z"/><path class="cls-5" d="M54.19,28.68A7.48,7.48,0,0,0,57.55,30a7.55,7.55,0,0,1-3.45-1.16Z"/><path class="cls-5" d="M54.89,28.43a2.06,2.06,0,0,0,.63.46,6,6,0,0,0,.74.33,5.32,5.32,0,0,0,1.59.33,5.36,5.36,0,0,1-1.62-.25,6.09,6.09,0,0,1-.77-.29,2.15,2.15,0,0,1-.7-.47Z"/><path class="cls-5" d="M55.3,28.26a3.64,3.64,0,0,0,1.33.64,5.31,5.31,0,0,0,1.5.21A5.36,5.36,0,0,1,56.62,29a3.73,3.73,0,0,1-1.42-.6Z"/><path class="cls-5" d="M55.94,28a1.14,1.14,0,0,0,.48.32,3.5,3.5,0,0,0,.62.2,3.86,3.86,0,0,0,1.31.05,3.9,3.9,0,0,1-1.32,0,3.6,3.6,0,0,1-.65-.16c-.21-.1-.43-.13-.59-.39Z"/><path class="cls-5" d="M56.61,27.79c.05.11.26.18.43.22a3.59,3.59,0,0,0,.54.08,6.11,6.11,0,0,0,1.11,0,6.15,6.15,0,0,1-1.11.09,3.69,3.69,0,0,1-.56,0,.78.78,0,0,1-.55-.27Z"/><path class="cls-5" d="M57,27.65a1.86,1.86,0,0,0,.44.08,4.29,4.29,0,0,0,.53,0A4.93,4.93,0,0,0,59,27.59a5,5,0,0,1-1,.24,4.39,4.39,0,0,1-.54,0l-.27,0c-.1,0-.17,0-.31-.13Z"/><path class="cls-5" d="M57.31,27.54a15,15,0,0,1,2-.75A15,15,0,0,1,57.31,27.54Z"/><path class="cls-10" d="M46,52.21c.95-.33,3-1.59,5-1.81A10.11,10.11,0,0,1,57.15,52a8.56,8.56,0,0,1,3.09,3.84,2.45,2.45,0,0,0,.86,1.5c-.95,0-3,1.55-5.92,1.21a11.09,11.09,0,0,1-5.93-2.46C47.3,54.53,47.09,52.93,46,52.21Z"/><path class="cls-5" d="M58.69,56.4A44.32,44.32,0,0,0,49.83,53a42.85,42.85,0,0,0-5.09-1.16c-.24,0-.32.37,0,.41s2.93.54,5,1.1A58.45,58.45,0,0,1,58.69,56.4Z"/><path class="cls-5" d="M47.25,52.39a9.11,9.11,0,0,1,1.91-1.19,5.83,5.83,0,0,1,2.14-.62,5.8,5.8,0,0,0-2.11.69,9,9,0,0,0-1.83,1.24Z"/><path class="cls-5" d="M47.89,52.6a12.2,12.2,0,0,1,2-1.24,10.45,10.45,0,0,1,2.24-.8,10.41,10.41,0,0,0-2.21.87,12.09,12.09,0,0,0-2,1.29Z"/><path class="cls-5" d="M48.78,52.8a9.23,9.23,0,0,1,4-2.13,9.15,9.15,0,0,0-3.93,2.25Z"/><path class="cls-5" d="M49.77,52.94a9.35,9.35,0,0,1,1.74-1.38,5.9,5.9,0,0,1,2-.81A7.43,7.43,0,0,0,49.89,53Z"/><path class="cls-5" d="M50.44,53.21a14,14,0,0,1,1.73-1.38,6,6,0,0,1,2-.93,6,6,0,0,0-1.94,1,13.93,13.93,0,0,0-1.66,1.43Z"/><path class="cls-5" d="M51.37,53.51a9.5,9.5,0,0,1,1.55-1.46,5.74,5.74,0,0,1,1.88-1,7.37,7.37,0,0,0-3.31,2.51Z"/><path class="cls-5" d="M52.11,53.71a11.56,11.56,0,0,1,3.28-2.34,11.49,11.49,0,0,0-3.16,2.45Z"/><path class="cls-5" d="M52.77,54a7.1,7.1,0,0,1,1.45-1.45,4.75,4.75,0,0,1,1.84-.86,5.78,5.78,0,0,0-3.15,2.41Z"/><path class="cls-5" d="M53.59,54.29a2.92,2.92,0,0,1,1.28-1.48,5.1,5.1,0,0,1,1.83-.64,5.06,5.06,0,0,0-1.79.71,2.82,2.82,0,0,0-1.16,1.45Z"/><path class="cls-5" d="M54.15,54.44a5,5,0,0,1,3.2-1.81,4.92,4.92,0,0,0-3.07,1.9Z"/><path class="cls-5" d="M54.67,54.64a5.08,5.08,0,0,1,3.39-1.45,5,5,0,0,0-3.27,1.56Z"/><path class="cls-5" d="M55.32,54.84a6.24,6.24,0,0,1,3.2-1.12A6.17,6.17,0,0,0,55.42,55Z"/><path class="cls-5" d="M55.79,55a15.42,15.42,0,0,1,1.56-.56A4.37,4.37,0,0,1,59,54.25a4.34,4.34,0,0,0-1.61.31,15.3,15.3,0,0,0-1.52.63Z"/><path class="cls-5" d="M56.37,55.32a1.28,1.28,0,0,1,.73-.4,4.72,4.72,0,0,1,.78-.14,4.77,4.77,0,0,1,1.56.09,4.73,4.73,0,0,0-1.55,0,4.62,4.62,0,0,0-.75.18,1.34,1.34,0,0,0-.62.34Z"/><path class="cls-5" d="M57,55.6c.24-.24.45-.21.67-.28a6.68,6.68,0,0,1,.67-.1,3.51,3.51,0,0,1,1.34.07,3.47,3.47,0,0,0-1.33,0,6.58,6.58,0,0,0-.65.14,1.72,1.72,0,0,0-.55.22Z"/><path class="cls-5" d="M57.58,55.88c.12-.15.2-.13.3-.17l.28-.07a4.93,4.93,0,0,1,.57-.08,2.32,2.32,0,0,1,1.12.13,2.29,2.29,0,0,0-1.11-.05,4.83,4.83,0,0,0-.55.12,2.15,2.15,0,0,0-.45.17Z"/><path class="cls-5" d="M58.11,56.11c.14-.14.19-.09.28-.13l.24,0,.49,0a2.58,2.58,0,0,1,.95.16,2.54,2.54,0,0,0-.95-.08l-.47.06c-.13,0-.36.09-.39.09Z"/><path class="cls-5" d="M47.43,52.29a10,10,0,0,0,.76,2,5.18,5.18,0,0,0,1.3,1.74,5.22,5.22,0,0,1-1.37-1.7,10.12,10.12,0,0,1-.84-2Z"/><path class="cls-5" d="M48.07,52.47a11.17,11.17,0,0,0,2.18,4.13,11.25,11.25,0,0,1-2.33-4.08Z"/><path class="cls-5" d="M48.93,52.79a18.48,18.48,0,0,0,2,4.23,18.55,18.55,0,0,1-2.16-4.17Z"/><path class="cls-5" d="M49.82,53.24a11.65,11.65,0,0,0,1.77,4,11.72,11.72,0,0,1-1.92-4Z"/><path class="cls-5" d="M50.54,53.39a21.56,21.56,0,0,0,.66,2.12,9.23,9.23,0,0,0,1,2,9.27,9.27,0,0,1-1-2,21.67,21.67,0,0,1-.74-2.11Z"/><path class="cls-5" d="M51.48,53.67a13.26,13.26,0,0,0,.41,2.11,6.51,6.51,0,0,0,.87,2,6.55,6.55,0,0,1-1-1.94,13.37,13.37,0,0,1-.49-2.11Z"/><path class="cls-5" d="M52.2,53.91a10.83,10.83,0,0,0,1.19,4A10.91,10.91,0,0,1,52,53.93Z"/><path class="cls-5" d="M52.93,54a9.26,9.26,0,0,0,1.31,4.09A9.34,9.34,0,0,1,52.77,54Z"/><path class="cls-5" d="M53.75,54.31a7.63,7.63,0,0,0,1.29,4,7.69,7.69,0,0,1-1.45-4Z"/><path class="cls-5" d="M54.3,54.45a8.07,8.07,0,0,0,1.56,3.88,8.14,8.14,0,0,1-1.72-3.87Z"/><path class="cls-5" d="M54.88,54.7a9.52,9.52,0,0,0,1.64,3.65,9.59,9.59,0,0,1-1.79-3.61Z"/><path class="cls-5" d="M55.55,55a7.48,7.48,0,0,0,1.52,3.26A7.55,7.55,0,0,1,55.39,55Z"/><path class="cls-5" d="M56.23,55.29a2.06,2.06,0,0,0,.13.77,6,6,0,0,0,.31.75,5.32,5.32,0,0,0,.92,1.34,5.36,5.36,0,0,1-1-1.31,6.09,6.09,0,0,1-.35-.75,2.15,2.15,0,0,1-.18-.83Z"/><path class="cls-5" d="M56.64,55.45a3.64,3.64,0,0,0,.51,1.39A5.31,5.31,0,0,0,58.09,58a5.35,5.35,0,0,1-1-1.15,3.72,3.72,0,0,1-.61-1.42Z"/><path class="cls-5" d="M57.25,55.73a1.14,1.14,0,0,0,.12.57,3.5,3.5,0,0,0,.31.57,3.86,3.86,0,0,0,.9.95,3.9,3.9,0,0,1-1-.9,3.6,3.6,0,0,1-.35-.57,1.05,1.05,0,0,1-.15-.7Z"/><path class="cls-5" d="M57.9,56c0,.12.07.31.15.45a3.59,3.59,0,0,0,.33.44,6.11,6.11,0,0,0,.8.76,6.15,6.15,0,0,1-.86-.71,3.69,3.69,0,0,1-.37-.42.78.78,0,0,1-.21-.57Z"/><path class="cls-5" d="M58.26,56.17a1.86,1.86,0,0,0,.26.37,4.29,4.29,0,0,0,.37.37,4.93,4.93,0,0,0,.87.62,5,5,0,0,1-.92-.56,4.39,4.39,0,0,1-.41-.35l-.19-.2c0-.09-.14-.11-.13-.31Z"/><path class="cls-5" d="M58.58,56.32a15,15,0,0,1,2,.84A15,15,0,0,1,58.58,56.32Z"/><path class="cls-11" d="M42.33,40.07c-.66-.75-1.86-2.89-3.41-4a10.11,10.11,0,0,0-6.21-1.66,8.56,8.56,0,0,0-4.59,1.8,2.45,2.45,0,0,1-1.49.88c.84.45,1.85,2.85,4.54,4a11.09,11.09,0,0,0,6.37.81C40,41.44,41,40.15,42.33,40.07Z"/><path class="cls-5" d="M29.22,37.41a44.32,44.32,0,0,1,9.38,1.44,42.85,42.85,0,0,1,5,1.52c.22.09.09.48-.23.34s-2.81-1-4.91-1.54A58.45,58.45,0,0,0,29.22,37.41Z"/><path class="cls-5" d="M41,39.65a9,9,0,0,0-1-2A5.8,5.8,0,0,0,38.52,36a5.83,5.83,0,0,1,1.55,1.6,9.11,9.11,0,0,1,1.06,2Z"/><path class="cls-5" d="M40.33,39.52a12.1,12.1,0,0,0-1.08-2.1,10.41,10.41,0,0,0-1.48-1.85,10.45,10.45,0,0,1,1.55,1.81,12.21,12.21,0,0,1,1.17,2.09Z"/><path class="cls-5" d="M39.45,39.24a9.15,9.15,0,0,0-2.3-3.9A9.23,9.23,0,0,1,39.6,39.2Z"/><path class="cls-5" d="M38.52,38.86a7.43,7.43,0,0,0-2-3.82,5.9,5.9,0,0,1,1.38,1.72,9.35,9.35,0,0,1,.83,2.06Z"/><path class="cls-5" d="M37.8,38.77a13.93,13.93,0,0,0-.74-2.07,6,6,0,0,0-1.19-1.83,6,6,0,0,1,1.26,1.8A14,14,0,0,1,38,38.73Z"/><path class="cls-5" d="M36.85,38.56a7.37,7.37,0,0,0-1.63-3.82,5.74,5.74,0,0,1,1.16,1.76,9.5,9.5,0,0,1,.63,2Z"/><path class="cls-5" d="M36.11,38.38a11.49,11.49,0,0,0-1.53-3.69,11.56,11.56,0,0,1,1.69,3.66Z"/><path class="cls-5" d="M35.37,38.29a5.78,5.78,0,0,0-1.54-3.65A4.75,4.75,0,0,1,35,36.3a7.1,7.1,0,0,1,.54,2Z"/><path class="cls-5" d="M34.54,38.06a2.82,2.82,0,0,0-.29-1.84,5.06,5.06,0,0,0-1.2-1.5,5.1,5.1,0,0,1,1.28,1.46,2.92,2.92,0,0,1,.38,1.92Z"/><path class="cls-5" d="M34,38a4.92,4.92,0,0,0-1.72-3.17A5,5,0,0,1,34.13,38Z"/><path class="cls-5" d="M33.42,37.91a5,5,0,0,0-2.07-3,5.08,5.08,0,0,1,2.23,2.95Z"/><path class="cls-5" d="M32.77,37.79a6.17,6.17,0,0,0-2.08-2.62,6.24,6.24,0,0,1,2.22,2.56Z"/><path class="cls-5" d="M32.28,37.76a15.31,15.31,0,0,0-1-1.3A4.34,4.34,0,0,0,30,35.4a4.38,4.38,0,0,1,1.3,1,15.42,15.42,0,0,1,1.08,1.26Z"/><path class="cls-5" d="M31.61,37.6a1.34,1.34,0,0,0-.37-.6,4.62,4.62,0,0,0-.57-.53,4.73,4.73,0,0,0-1.35-.76,4.77,4.77,0,0,1,1.4.7,4.72,4.72,0,0,1,.6.51,1.28,1.28,0,0,1,.44.71Z"/><path class="cls-5" d="M30.9,37.51a1.72,1.72,0,0,0-.37-.46A6.57,6.57,0,0,0,30,36.6a3.47,3.47,0,0,0-1.15-.67,3.51,3.51,0,0,1,1.19.6,6.66,6.66,0,0,1,.53.42c.16.18.35.25.44.58Z"/><path class="cls-5" d="M30.29,37.47A2.15,2.15,0,0,0,30,37.1a4.82,4.82,0,0,0-.42-.37,2.29,2.29,0,0,0-1-.51,2.32,2.32,0,0,1,1,.44,4.92,4.92,0,0,1,.45.35l.21.2c.06.09.14.1.17.3Z"/><path class="cls-5" d="M29.71,37.42s-.18-.2-.29-.27a4.72,4.72,0,0,0-.38-.28,2.54,2.54,0,0,0-.86-.4,2.58,2.58,0,0,1,.9.33,4.82,4.82,0,0,1,.41.26l.2.15c.06.08.13.06.18.25Z"/><path class="cls-5" d="M41.15,39.54a10.11,10.11,0,0,1-1.74,1.35,5.22,5.22,0,0,1-2,.8,5.18,5.18,0,0,0,2-.87A10,10,0,0,0,41,39.42Z"/><path class="cls-5" d="M40.5,39.38a11.25,11.25,0,0,1-4,2.39,11.17,11.17,0,0,0,3.94-2.5Z"/><path class="cls-5" d="M39.59,39.24a18.55,18.55,0,0,1-3.94,2.55,18.47,18.47,0,0,0,3.84-2.67Z"/><path class="cls-5" d="M38.6,39.17a11.72,11.72,0,0,1-3.65,2.52,11.65,11.65,0,0,0,3.54-2.63Z"/><path class="cls-5" d="M37.91,38.95a21.67,21.67,0,0,1-1.69,1.46,9.26,9.26,0,0,1-1.88,1.19,9.23,9.23,0,0,0,1.83-1.25,21.56,21.56,0,0,0,1.62-1.51Z"/><path class="cls-5" d="M37,38.71a13.37,13.37,0,0,1-1.48,1.59,6.55,6.55,0,0,1-1.79,1.21,6.51,6.51,0,0,0,1.73-1.27,13.26,13.26,0,0,0,1.4-1.63Z"/><path class="cls-5" d="M36.22,38.56a10.91,10.91,0,0,1-3.13,2.75,10.83,10.83,0,0,0,3-2.85Z"/><path class="cls-5" d="M35.53,38.3a9.34,9.34,0,0,1-3.3,2.81,9.26,9.26,0,0,0,3.17-2.9Z"/><path class="cls-5" d="M34.68,38.12a7.69,7.69,0,0,1-3.23,2.72A7.63,7.63,0,0,0,34.54,38Z"/><path class="cls-5" d="M34.12,38a8.14,8.14,0,0,1-3.41,2.5A8.07,8.07,0,0,0,34,37.89Z"/><path class="cls-5" d="M33.49,37.93a9.59,9.59,0,0,1-3.35,2.24,9.52,9.52,0,0,0,3.23-2.35Z"/><path class="cls-5" d="M32.77,37.84a7.55,7.55,0,0,1-3.06,2,7.48,7.48,0,0,0,2.93-2.08Z"/><path class="cls-5" d="M32.06,37.73a2.15,2.15,0,0,1-.57.63,6.09,6.09,0,0,1-.68.47,5.36,5.36,0,0,1-1.5.64,5.32,5.32,0,0,0,1.46-.71,6,6,0,0,0,.64-.5,2.06,2.06,0,0,0,.5-.6Z"/><path class="cls-5" d="M31.6,37.69a3.72,3.72,0,0,1-1.23.93,5.35,5.35,0,0,1-1.44.5,5.31,5.31,0,0,0,1.4-.57,3.64,3.64,0,0,0,1.13-1Z"/><path class="cls-5" d="M31,37.54c-.1.3-.3.38-.48.53a3.6,3.6,0,0,1-.59.32,3.9,3.9,0,0,1-1.29.3,3.86,3.86,0,0,0,1.25-.37,3.5,3.5,0,0,0,.55-.34,1.14,1.14,0,0,0,.39-.43Z"/><path class="cls-5" d="M30.25,37.5c-.1.25-.3.3-.46.39a3.69,3.69,0,0,1-.53.18,6.15,6.15,0,0,1-1.1.19A6.11,6.11,0,0,0,29.23,38a3.59,3.59,0,0,0,.51-.22c.15-.08.33-.2.36-.32Z"/><path class="cls-5" d="M29.87,37.44c-.09.18-.18.15-.27.21l-.26.08a4.38,4.38,0,0,1-.53.1,5,5,0,0,1-1.07,0,4.93,4.93,0,0,0,1.06-.11,4.29,4.29,0,0,0,.51-.14,1.85,1.85,0,0,0,.4-.19Z"/><path class="cls-5" d="M29.35,37.4a15,15,0,0,1-2.12-.24A15,15,0,0,1,29.35,37.4Z"/><path class="cls-12" d="M44,18.28a10.69,10.69,0,0,1-.15-2.64,5.07,5.07,0,0,1,1.69-2.74A4.29,4.29,0,0,1,47.82,12a1.23,1.23,0,0,0,.85-.2c-.15.45.31,1.67-.28,3a5.56,5.56,0,0,1-2,2.49C45.29,18,44.49,17.85,44,18.28Z"/><path class="cls-5" d="M47.84,12.79a22.22,22.22,0,0,0-2.92,3.76,21.51,21.51,0,0,0-1.29,2.28c0,.11.13.21.2,0s.68-1.33,1.26-2.25A29.3,29.3,0,0,1,47.84,12.79Z"/><path class="cls-5" d="M44.26,17.7a4.57,4.57,0,0,1-.3-1.09,2.93,2.93,0,0,1,0-1.12,2.91,2.91,0,0,0,0,1.11,4.51,4.51,0,0,0,.33,1.06Z"/><path class="cls-5" d="M44.45,17.42a6,6,0,0,1-.35-2.36,5.91,5.91,0,0,0,.43,2.33Z"/><path class="cls-5" d="M44.68,17a4.62,4.62,0,0,1-.44-2.25A4.59,4.59,0,0,0,44.75,17Z"/><path class="cls-5" d="M44.89,16.57a3.76,3.76,0,0,1-.5-2.14,3.73,3.73,0,0,0,.57,2.1Z"/><path class="cls-5" d="M45.11,16.28a4.64,4.64,0,0,1-.57-2.12,4.61,4.61,0,0,0,.64,2.08Z"/><path class="cls-5" d="M45.39,15.88a3.73,3.73,0,0,1-.66-2,3.7,3.7,0,0,0,.72,2Z"/><path class="cls-5" d="M45.6,15.56A5.8,5.8,0,0,1,45,13.65a5.76,5.76,0,0,0,.72,1.87Z"/><path class="cls-5" d="M45.84,15.28a2.94,2.94,0,0,1-.64-1.91,2.9,2.9,0,0,0,.7,1.86Z"/><path class="cls-5" d="M46.09,14.93a1.89,1.89,0,0,1-.56-1.8,2.54,2.54,0,0,0,.08,1,1.41,1.41,0,0,0,.53.77Z"/><path class="cls-5" d="M46.24,14.68a2.5,2.5,0,0,1-.4-1.8,2.47,2.47,0,0,0,.47,1.75Z"/><path class="cls-5" d="M46.42,14.46a2.54,2.54,0,0,1-.2-1.84,2.51,2.51,0,0,0,.27,1.8Z"/><path class="cls-5" d="M46.6,14.18a3.13,3.13,0,0,1-.07-1.7,3.09,3.09,0,0,0,.15,1.67Z"/><path class="cls-5" d="M46.77,14a7.73,7.73,0,0,1,0-.83,2.19,2.19,0,0,1,.12-.82,2.18,2.18,0,0,0-.08.82,7.68,7.68,0,0,0,.08.82Z"/><path class="cls-5" d="M47,13.75a.64.64,0,0,1-.08-.41,2.36,2.36,0,0,1,0-.39,2.39,2.39,0,0,1,.27-.74A2.37,2.37,0,0,0,47,13a2.31,2.31,0,0,0,0,.39.67.67,0,0,0,.07.34Z"/><path class="cls-5" d="M47.22,13.47a.61.61,0,0,1,0-.36,3.34,3.34,0,0,1,0-.34,1.76,1.76,0,0,1,.23-.63,1.74,1.74,0,0,0-.19.64,3.3,3.3,0,0,0,0,.33.86.86,0,0,0,0,.3Z"/><path class="cls-5" d="M47.43,13.25c-.07-.14,0-.21,0-.31a2.47,2.47,0,0,1,0-.28,1.16,1.16,0,0,1,.22-.52,1.15,1.15,0,0,0-.19.52,2.42,2.42,0,0,0,0,.28,1.08,1.08,0,0,0,0,.24Z"/><path class="cls-5" d="M47.62,13c-.06-.14,0-.19,0-.28a2.42,2.42,0,0,1,.06-.24,1.29,1.29,0,0,1,.22-.43,1.27,1.27,0,0,0-.18.44,2.37,2.37,0,0,0,0,.23c0,.07,0,.19,0,.2Z"/><path class="cls-5" d="M44.23,17.6a5,5,0,0,0,1.09-.07,2.6,2.6,0,0,0,1-.37,2.61,2.61,0,0,1-1,.41,5.07,5.07,0,0,1-1.1.11Z"/><path class="cls-5" d="M44.41,17.31a5.6,5.6,0,0,0,2.3-.45,5.64,5.64,0,0,1-2.3.53Z"/><path class="cls-5" d="M44.69,16.95A9.26,9.26,0,0,0,47,16.6,9.3,9.3,0,0,1,44.7,17Z"/><path class="cls-5" d="M45,16.58a5.84,5.84,0,0,0,2.19-.26,5.88,5.88,0,0,1-2.2.34Z"/><path class="cls-5" d="M45.21,16.26a7.15,7.15,0,0,0,2.21-.19,7.19,7.19,0,0,1-2.21.27Z"/><path class="cls-5" d="M45.48,15.85a4.68,4.68,0,0,0,2.14,0,4.72,4.72,0,0,1-2.15.11Z"/><path class="cls-5" d="M45.7,15.54a5.43,5.43,0,0,0,2.07,0,5.47,5.47,0,0,1-2.09.08Z"/><path class="cls-5" d="M45.87,15.21a4.65,4.65,0,0,0,2.15,0,4.68,4.68,0,0,1-2.17.11Z"/><path class="cls-5" d="M46.12,14.85a3.82,3.82,0,0,0,2.09,0,3.86,3.86,0,0,1-2.11.12Z"/><path class="cls-5" d="M46.27,14.61a4,4,0,0,0,2.09-.19,4.08,4.08,0,0,1-2.11.27Z"/><path class="cls-5" d="M46.47,14.37a4.77,4.77,0,0,0,2-.26,4.81,4.81,0,0,1-2,.34Z"/><path class="cls-5" d="M46.71,14.09a3.75,3.75,0,0,0,1.79-.25,3.78,3.78,0,0,1-1.79.33Z"/><path class="cls-5" d="M47,13.81a1.8,1.8,0,0,0,.79,0,2.67,2.67,0,0,0,.78-.24,2.69,2.69,0,0,1-.77.28,1.82,1.82,0,0,1-.83,0Z"/><path class="cls-5" d="M47.09,13.64a1.83,1.83,0,0,0,.74,0,2.66,2.66,0,0,0,.71-.28,2.68,2.68,0,0,1-.7.31,1.87,1.87,0,0,1-.77.08Z"/><path class="cls-5" d="M47.31,13.38a.57.57,0,0,0,.29,0,1.75,1.75,0,0,0,.32-.07,1.94,1.94,0,0,0,.58-.3,2,2,0,0,1-.57.33,1.8,1.8,0,0,1-.32.09.53.53,0,0,1-.36,0Z"/><path class="cls-5" d="M47.54,13.11a.36.36,0,0,0,.24,0L48,13a3.06,3.06,0,0,0,.48-.28,3.08,3.08,0,0,1-.47.31l-.26.12a.39.39,0,0,1-.3,0Z"/><path class="cls-5" d="M47.67,13a.93.93,0,0,0,.21-.07l.23-.13a2.47,2.47,0,0,0,.42-.33,2.49,2.49,0,0,1-.4.36l-.23.15c-.09,0-.14.11-.29.08Z"/><path class="cls-5" d="M47.79,12.83a8.5,8.5,0,0,1,.69-.82A8.51,8.51,0,0,1,47.79,12.83Z"/><path class="cls-13" d="M42.49,14.28c-.18-1.27.05-4.41-.81-6.72a13,13,0,0,0-5.48-6.15A11,11,0,0,0,30,.11,3.13,3.13,0,0,1,27.82,0c.58,1.07,0,4.35,2,7.47a14.21,14.21,0,0,0,6.25,5.36C39.08,14.12,41,13.43,42.49,14.28Z"/><path class="cls-5" d="M30.34,2.19a56.81,56.81,0,0,1,9,8.15,49.07,49.07,0,0,1,4.12,5c.17.26.19,1-.05.65s-2.58-3.33-4.44-5.4A74.9,74.9,0,0,0,30.34,2.19Z"/><path class="cls-5" d="M41.36,12.88a11.53,11.53,0,0,0,.35-2.82,7.43,7.43,0,0,0-.43-2.81,7.48,7.48,0,0,1,.53,2.81,11.68,11.68,0,0,1-.26,2.87Z"/><path class="cls-5" d="M40.75,12.27a15.5,15.5,0,0,0,.32-3,13.35,13.35,0,0,0-.28-3,13.4,13.4,0,0,1,.39,3,15.64,15.64,0,0,1-.22,3.06Z"/><path class="cls-5" d="M40,11.36a11.73,11.73,0,0,0,.29-5.8,9.85,9.85,0,0,1,.32,2.92,13.51,13.51,0,0,1-.41,2.93Z"/><path class="cls-5" d="M39.28,10.3a11.84,11.84,0,0,0,.66-2.73,7.51,7.51,0,0,0-.16-2.8A7.56,7.56,0,0,1,40,7.58a12,12,0,0,1-.57,2.79Z"/><path class="cls-5" d="M38.57,9.69A17.86,17.86,0,0,0,39.24,7a7.67,7.67,0,0,0,0-2.8A7.72,7.72,0,0,1,39.34,7a18,18,0,0,1-.58,2.78Z"/><path class="cls-5" d="M37.7,8.79a12,12,0,0,0,.85-2.55,7.31,7.31,0,0,0,.1-2.69,7.36,7.36,0,0,1,0,2.71,12.17,12.17,0,0,1-.76,2.62Z"/><path class="cls-5" d="M37,8.08a14.72,14.72,0,0,0,1-5,14.82,14.82,0,0,1-.77,5.1Z"/><path class="cls-5" d="M36.3,7.47a7.41,7.41,0,0,0,.92-5,6.08,6.08,0,0,1,.08,2.6,9.1,9.1,0,0,1-.82,2.5Z"/><path class="cls-5" d="M35.58,6.63a3.62,3.62,0,0,0,1-2.17,5.69,5.69,0,0,0,0-1.24A8.27,8.27,0,0,0,36.32,2a8.3,8.3,0,0,1,.29,1.21,5.77,5.77,0,0,1,0,1.25,3.75,3.75,0,0,1-.95,2.32Z"/><path class="cls-5" d="M35,6.14a6.3,6.3,0,0,0,.39-4.61,6.4,6.4,0,0,1-.21,4.71Z"/><path class="cls-5" d="M34.49,5.68A6.41,6.41,0,0,0,34.37,1a6.51,6.51,0,0,1,.31,4.72Z"/><path class="cls-5" d="M33.87,5.09A7.9,7.9,0,0,0,33.5.82a6.32,6.32,0,0,1,.58,2.1,9.84,9.84,0,0,1,0,2.2Z"/><path class="cls-5" d="M33.37,4.72a19.62,19.62,0,0,0-.17-2.1,5.56,5.56,0,0,0-.57-2,5.61,5.61,0,0,1,.67,2,19.76,19.76,0,0,1,.27,2.11Z"/><path class="cls-5" d="M32.76,4.07a1.72,1.72,0,0,0,0-.9,5.92,5.92,0,0,0-.23-1A6.06,6.06,0,0,0,31.65.44a6.11,6.11,0,0,1,1,1.73,6,6,0,0,1,.29,1,1.65,1.65,0,0,1,0,1.06Z"/><path class="cls-5" d="M32.07,3.48A2.21,2.21,0,0,0,32,2.72a8.42,8.42,0,0,0-.22-.82A4.45,4.45,0,0,0,31,.38a4.5,4.5,0,0,1,.85,1.49,8.55,8.55,0,0,1,.27.82,4.34,4.34,0,0,1,.1.43.75.75,0,0,1,0,.5Z"/><path class="cls-5" d="M31.44,3s0-.17,0-.27,0-.23-.06-.35a6.18,6.18,0,0,0-.18-.69,2.93,2.93,0,0,0-.7-1.24,3,3,0,0,1,.8,1.2,6.31,6.31,0,0,1,.24.69c0,.12.06.24.08.36s.08.21,0,.44Z"/><path class="cls-5" d="M30.86,2.54s0-.13,0-.21,0-.19-.08-.29a6.06,6.06,0,0,0-.21-.57,3.25,3.25,0,0,0-.64-1,3.3,3.3,0,0,1,.73,1,6.18,6.18,0,0,1,.26.57c0,.1.07.2.11.3s.1.16,0,.4Z"/><path class="cls-5" d="M41.62,12.87a13,13,0,0,1-2.82.22,6.69,6.69,0,0,1-2.74-.58A6.64,6.64,0,0,0,38.8,13a12.81,12.81,0,0,0,2.77-.31Z"/><path class="cls-5" d="M41,12.24a14.42,14.42,0,0,1-6-.3,14.32,14.32,0,0,0,6,.1Z"/><path class="cls-5" d="M40.15,11.45a23.77,23.77,0,0,1-6,0,23.68,23.68,0,0,0,6-.16Z"/><path class="cls-5" d="M39.14,10.68A19,19,0,0,1,36.3,11a11.52,11.52,0,0,1-2.84-.21,14.93,14.93,0,0,0,5.64-.32Z"/><path class="cls-5" d="M38.56,10a27.78,27.78,0,0,1-2.84.38,11.87,11.87,0,0,1-2.85-.06,11.82,11.82,0,0,0,2.84,0,27.63,27.63,0,0,0,2.8-.48Z"/><path class="cls-5" d="M37.72,9A17.13,17.13,0,0,1,35,9.7a8.39,8.39,0,0,1-2.76,0A8.34,8.34,0,0,0,35,9.6a17,17,0,0,0,2.65-.75Z"/><path class="cls-5" d="M37,8.35A17.61,17.61,0,0,1,34.41,9a10.75,10.75,0,0,1-2.67.12A13.88,13.88,0,0,0,37,8.15Z"/><path class="cls-5" d="M36.46,7.58a14.23,14.23,0,0,1-2.72.66,9.65,9.65,0,0,1-2.79,0,11.87,11.87,0,0,0,5.43-.87Z"/><path class="cls-5" d="M35.69,6.79a8.74,8.74,0,0,1-2.65.7,10.86,10.86,0,0,1-2.72-.06,10.81,10.81,0,0,0,2.71,0,8.61,8.61,0,0,0,2.57-.78Z"/><path class="cls-5" d="M35.18,6.26a10.43,10.43,0,0,1-5.42.27,10.34,10.34,0,0,0,5.34-.47Z"/><path class="cls-5" d="M34.54,5.75A16.53,16.53,0,0,1,32,6a9,9,0,0,1-2.58-.25A9,9,0,0,0,32,5.94a16.4,16.4,0,0,0,2.54-.39Z"/><path class="cls-5" d="M33.84,5.15a9.68,9.68,0,0,1-4.67,0A9.58,9.58,0,0,0,33.78,5Z"/><path class="cls-5" d="M33.15,4.53a2.75,2.75,0,0,1-1.05.27,7.8,7.8,0,0,1-1.06,0A6.87,6.87,0,0,1,29,4.46,6.82,6.82,0,0,0,31,4.73a7.68,7.68,0,0,0,1-.08,2.64,2.64,0,0,0,1-.29Z"/><path class="cls-5" d="M32.69,4.17a4.77,4.77,0,0,1-2,.13,6.86,6.86,0,0,1-1.89-.48,6.81,6.81,0,0,0,1.9.38A4.67,4.67,0,0,0,32.61,4Z"/><path class="cls-5" d="M32.11,3.55a1.35,1.35,0,0,1-.89.23,4.61,4.61,0,0,1-.85-.08,5,5,0,0,1-1.59-.58,5,5,0,0,0,1.6.48,4.48,4.48,0,0,0,.83,0,1.46,1.46,0,0,0,.72-.19Z"/><path class="cls-5" d="M31.38,3a1,1,0,0,1-.77.09,4.73,4.73,0,0,1-.7-.18,7.89,7.89,0,0,1-1.31-.58,7.84,7.84,0,0,0,1.34.48,4.6,4.6,0,0,0,.69.13c.22,0,.5,0,.61-.09Z"/><path class="cls-5" d="M31,2.67c-.23.13-.3,0-.43,0l-.34-.1a5.62,5.62,0,0,1-.64-.26,6.37,6.37,0,0,1-1.17-.73,6.32,6.32,0,0,0,1.21.63,5.5,5.5,0,0,0,.65.21l.33.07c.09,0,.27,0,.24,0Z"/><path class="cls-5" d="M30.49,2.26A19.26,19.26,0,0,1,28.39.51,19.25,19.25,0,0,1,30.49,2.26Z"/><path class="cls-14" d="M43.43,12a13.88,13.88,0,0,1-1.37-3.15,6.58,6.58,0,0,1,.83-4.1,5.57,5.57,0,0,1,2.38-2.15A1.59,1.59,0,0,0,46.21,2c0,.62,1.12,1.9,1,3.8a7.22,7.22,0,0,1-1.37,4C44.88,11.08,43.85,11.28,43.43,12Z"/><path class="cls-5" d="M45.66,3.61A28.86,28.86,0,0,0,43.79,9.5a27.89,27.89,0,0,0-.56,3.35c0,.16.07.69.08.46s.42-2.42.7-3.81A38.06,38.06,0,0,1,45.66,3.61Z"/><path class="cls-5" d="M43.5,11.19A5.93,5.93,0,0,1,42.65,10a3.8,3.8,0,0,1-.48-1.37A3.77,3.77,0,0,0,42.69,10a5.86,5.86,0,0,0,.88,1.14Z"/><path class="cls-5" d="M43.6,10.77a7.73,7.73,0,0,1-1.49-2.71,7.68,7.68,0,0,0,1.57,2.64Z"/><path class="cls-5" d="M43.7,10.18a6,6,0,0,1-1.54-2.55,6,6,0,0,0,1.61,2.47Z"/><path class="cls-5" d="M43.76,9.54a4.89,4.89,0,0,1-1.57-2.38,4.84,4.84,0,0,0,1.64,2.3Z"/><path class="cls-5" d="M43.91,9.09a9.14,9.14,0,0,1-1-1.07,3.92,3.92,0,0,1-.68-1.26A3.9,3.9,0,0,0,43,8a9.07,9.07,0,0,0,1,1Z"/><path class="cls-5" d="M44.07,8.48a4.85,4.85,0,0,1-1.7-2.14,4.8,4.8,0,0,0,1.76,2.06Z"/><path class="cls-5" d="M44.17,8a7.53,7.53,0,0,1-1.65-2,7.48,7.48,0,0,0,1.71,2Z"/><path class="cls-5" d="M44.35,7.54a3.82,3.82,0,0,1-1.63-2,3.77,3.77,0,0,0,1.69,2Z"/><path class="cls-5" d="M44.48,7A2.45,2.45,0,0,1,43,5.06a3.29,3.29,0,0,0,.53,1.14,1.84,1.84,0,0,0,1,.7Z"/><path class="cls-5" d="M44.56,6.63a3.25,3.25,0,0,1-1.3-2,3.2,3.2,0,0,0,1.35,1.92Z"/><path class="cls-5" d="M44.67,6.28A3.31,3.31,0,0,1,43.6,4.13,3.26,3.26,0,0,0,44.74,6.2Z"/><path class="cls-5" d="M44.78,5.85a4.06,4.06,0,0,1-.85-2,4,4,0,0,0,.93,2Z"/><path class="cls-5" d="M44.89,5.54a10,10,0,0,1-.42-1,2.85,2.85,0,0,1-.22-1.05,2.83,2.83,0,0,0,.27,1,10,10,0,0,0,.47,1Z"/><path class="cls-5" d="M45.05,5.15a.84.84,0,0,1-.28-.46,3.07,3.07,0,0,1-.12-.5,3.11,3.11,0,0,1,0-1,3.08,3.08,0,0,0,.06,1,3,3,0,0,0,.14.48.87.87,0,0,0,.24.39Z"/><path class="cls-5" d="M45.2,4.72c-.17-.15-.15-.28-.21-.42a4.34,4.34,0,0,1-.09-.43,2.28,2.28,0,0,1,0-.87,2.26,2.26,0,0,0,.06.86,4.28,4.28,0,0,0,.12.42,1.12,1.12,0,0,0,.17.35Z"/><path class="cls-5" d="M45.37,4.35c-.15-.14-.13-.24-.18-.37a3.21,3.21,0,0,1-.07-.36,1.51,1.51,0,0,1,0-.73,1.49,1.49,0,0,0,0,.72,3.14,3.14,0,0,0,.1.35,1.4,1.4,0,0,0,.13.29Z"/><path class="cls-5" d="M45.5,4c-.13-.14-.09-.22-.12-.34a3.14,3.14,0,0,1,0-.32,1.68,1.68,0,0,1,.07-.62,1.65,1.65,0,0,0,0,.62,3.08,3.08,0,0,0,.05.31c0,.09.07.23.08.25Z"/><path class="cls-5" d="M43.42,11.08a6.51,6.51,0,0,0,1.3-.57A3.37,3.37,0,0,0,45.8,9.6a3.4,3.4,0,0,1-1.05,1,6.59,6.59,0,0,1-1.29.63Z"/><path class="cls-5" d="M43.51,10.66a7.27,7.27,0,0,0,2.6-1.57,7.32,7.32,0,0,1-2.56,1.67Z"/><path class="cls-5" d="M43.69,10.09a12,12,0,0,0,2.67-1.47,12.08,12.08,0,0,1-2.63,1.56Z"/><path class="cls-5" d="M43.95,9.49a7.58,7.58,0,0,0,2.56-1.3A7.63,7.63,0,0,1,44,9.59Z"/><path class="cls-5" d="M44,9A9.29,9.29,0,0,0,46.62,7.8,9.34,9.34,0,0,1,44,9.12Z"/><path class="cls-5" d="M44.16,8.4a6.08,6.08,0,0,0,2.59-1A6.13,6.13,0,0,1,44.18,8.5Z"/><path class="cls-5" d="M44.29,7.92A7.06,7.06,0,0,0,46.82,7a7.1,7.1,0,0,1-2.51,1Z"/><path class="cls-5" d="M44.34,7.44a6,6,0,0,0,2.61-1,6.08,6.08,0,0,1-2.59,1.11Z"/><path class="cls-5" d="M44.49,6.89A5,5,0,0,0,47,5.9,5,5,0,0,1,44.5,7Z"/><path class="cls-5" d="M44.56,6.53A5.25,5.25,0,0,0,47,5.37a5.3,5.3,0,0,1-2.45,1.27Z"/><path class="cls-5" d="M44.7,6.15A6.2,6.2,0,0,0,47,4.94a6.25,6.25,0,0,1-2.28,1.3Z"/><path class="cls-5" d="M44.86,5.7a4.87,4.87,0,0,0,2.06-1.11,4.92,4.92,0,0,1-2,1.21Z"/><path class="cls-5" d="M45,5.25a2.34,2.34,0,0,0,1-.35,3.46,3.46,0,0,0,.84-.65,3.49,3.49,0,0,1-.81.69,2.36,2.36,0,0,1-1,.41Z"/><path class="cls-5" d="M45.13,5A2.37,2.37,0,0,0,46,4.59a3.46,3.46,0,0,0,.74-.65,3.49,3.49,0,0,1-.71.7,2.43,2.43,0,0,1-.9.45Z"/><path class="cls-5" d="M45.28,4.57a.74.74,0,0,0,.36-.1A2.27,2.27,0,0,0,46,4.24a2.51,2.51,0,0,0,.58-.62,2.54,2.54,0,0,1-.55.66,2.34,2.34,0,0,1-.35.25.69.69,0,0,1-.45.13Z"/><path class="cls-5" d="M45.44,4.13c.08,0,.2-.05.29-.12A2.34,2.34,0,0,0,46,3.78a4,4,0,0,0,.47-.55,4,4,0,0,1-.43.59,2.4,2.4,0,0,1-.26.26.51.51,0,0,1-.36.16Z"/><path class="cls-5" d="M45.53,3.89a1.21,1.21,0,0,0,.23-.18A2.79,2.79,0,0,0,46,3.46a3.21,3.21,0,0,0,.37-.59,3.24,3.24,0,0,1-.33.62,2.86,2.86,0,0,1-.21.28c-.1.08-.12.19-.32.22Z"/><path class="cls-5" d="M45.62,3.68a11,11,0,0,1,.47-1.31A11.05,11.05,0,0,1,45.62,3.68Z"/><path class="cls-15" d="M42.33,70.74c.4-4.94.67-9.92.88-14.89s.35-10,.44-14.94.13-10,.07-15S43.55,16,43.05,11c.7,4.94,1,9.93,1.28,14.91s.42,10,.54,15,.17,10,.16,15-.07,10-.28,15Z"/></g></g></svg>